<svg width="124" height="24" viewBox="0 0 124 24" fill="none" xmlns="http://www.w3.org/2000/svg">
<g clip-path="url(#clip0)">
<path d="M26.7104 11.5827L24.4795 4.95373H24.4299L22.1247 11.5827H26.7104ZM26.4873 0.500416L33.1055 18.5658H29.0651L27.7266 14.5429H21.1085L19.7203 18.5658H15.804L22.4964 0.500416H26.4873Z" fill="#231F20"/>
<path d="M37.5894 5.48497V7.30669H37.6641C38.1103 6.5476 38.6883 5.99536 39.3989 5.64943C40.1095 5.30392 40.8369 5.13081 41.5805 5.13081C42.5224 5.13081 43.2946 5.2615 43.8981 5.52288C44.5009 5.78465 44.9764 6.14703 45.323 6.61089C45.6704 7.075 45.9138 7.63987 46.0543 8.30618C46.1947 8.97264 46.2653 9.71032 46.2653 10.5201V18.5658H42.7455V11.1779C42.7455 10.0987 42.5799 9.29288 42.2498 8.76165C41.9189 8.23013 41.3326 7.9645 40.4899 7.9645C39.5311 7.9645 38.837 8.25551 38.4074 8.83741C37.9777 9.41942 37.7629 10.3769 37.7629 11.7091V18.5658H34.2434V5.48497H37.5894Z" fill="#231F20"/>
<path d="M55.8996 15.1756C56.2797 14.9731 56.5937 14.7036 56.8415 14.3659C57.0894 14.0287 57.2753 13.6448 57.3993 13.2147C57.5232 12.7845 57.5852 12.3334 57.5852 11.8609C57.5852 11.3213 57.5356 10.811 57.4364 10.3302C57.3373 9.84953 57.1717 9.42369 56.9407 9.05266C56.709 8.68161 56.4033 8.38635 56.0236 8.167C55.6431 7.94789 55.1639 7.83807 54.5859 7.83807C54.0902 7.83807 53.6643 7.9391 53.3094 8.14159C52.9537 8.34407 52.6563 8.61846 52.417 8.96386C52.1774 9.30976 52.0039 9.70633 51.8965 10.1531C51.7887 10.6004 51.7354 11.0685 51.7354 11.5574C51.7354 12.0298 51.7808 12.4979 51.8717 12.9616C51.9622 13.4257 52.1196 13.8431 52.3427 14.2142C52.5657 14.5853 52.8587 14.8889 53.2226 15.125C53.5858 15.3613 54.0406 15.4791 54.5859 15.4791C55.0816 15.4791 55.5192 15.3781 55.8996 15.1756ZM60.7207 19.5274C60.5803 20.2021 60.2784 20.8305 59.816 21.4125C59.353 21.9941 58.6837 22.4876 57.8082 22.8926C56.9321 23.2975 55.7588 23.5 54.2885 23.5C53.6602 23.5 53.0198 23.4197 52.3674 23.2595C51.7144 23.0992 51.1195 22.85 50.5828 22.513C50.0457 22.1753 49.5995 21.7416 49.2442 21.2099C48.8886 20.6788 48.6865 20.0419 48.637 19.2995H52.132C52.2969 19.9742 52.6191 20.4423 53.0987 20.7038C53.5775 20.9653 54.1311 21.0964 54.7594 21.0964C55.7509 21.0964 56.4735 20.7923 56.9283 20.1853C57.3827 19.5782 57.6013 18.8101 57.5852 17.8829V16.1623H57.5356C57.1552 16.8542 56.6143 17.364 55.912 17.6932C55.2094 18.0222 54.4702 18.1862 53.6936 18.1862C52.7351 18.1862 51.9089 18.0137 51.2148 17.6678C50.5208 17.3221 49.9507 16.8498 49.5045 16.2509C49.0583 15.6524 48.732 14.9522 48.5254 14.1508C48.3185 13.3498 48.2156 12.5021 48.2156 11.6081C48.2156 10.7647 48.335 9.9507 48.575 9.16631C48.8143 8.3821 49.1654 7.69051 49.6285 7.0916C50.0908 6.49297 50.665 6.01638 51.3512 5.66209C52.0366 5.3079 52.826 5.13082 53.7183 5.13082C54.5611 5.13082 55.3003 5.29117 55.9368 5.61155C56.5727 5.93208 57.1056 6.47171 57.5356 7.2308H57.5852V5.48497H60.9314V17.7312C60.9314 18.2542 60.8609 18.8527 60.7207 19.5274Z" fill="#231F20"/>
<path d="M71.2007 8.54642C70.7789 8.07433 70.1386 7.83807 69.2796 7.83807C68.7175 7.83807 68.2506 7.93513 67.8788 8.12897C67.507 8.3232 67.2099 8.56343 66.9868 8.85018C66.7634 9.13721 66.6064 9.44073 66.5155 9.76097C66.4246 10.0816 66.3709 10.3681 66.3548 10.6213H72.0803C71.9154 9.71033 71.6217 9.01903 71.2007 8.54642ZM67.222 15.4285C67.7508 15.9516 68.5109 16.213 69.5027 16.213C70.213 16.213 70.8244 16.0318 71.337 15.6688C71.8489 15.3064 72.1629 14.9225 72.2789 14.5177H75.3773C74.8812 16.0864 74.1211 17.2082 73.0969 17.8829C72.072 18.5576 70.8326 18.8948 69.3788 18.8948C68.3704 18.8948 67.4616 18.7305 66.6519 18.4018C65.8421 18.0727 65.1564 17.6046 64.5949 16.9975C64.0327 16.3901 63.5989 15.6649 63.2935 14.8213C62.9875 13.9781 62.835 13.0503 62.835 12.038C62.835 11.06 62.9916 10.1492 63.3059 9.30551C63.6195 8.46226 64.0657 7.73293 64.6444 7.11687C65.2225 6.50147 65.9124 6.01638 66.7142 5.66209C67.5153 5.3079 68.4035 5.13082 69.3788 5.13082C70.4694 5.13082 71.4193 5.34582 72.2293 5.77602C73.0387 6.20608 73.7038 6.78398 74.2244 7.50919C74.7452 8.23468 75.1208 9.06117 75.3525 9.98858C75.5835 10.9165 75.6662 11.8864 75.6001 12.8984H66.3548C66.4043 14.0623 66.6932 14.906 67.222 15.4285Z" fill="#231F20"/>
<path d="M80.9933 0.500416V18.5658H77.4739V0.500416H80.9933Z" fill="#231F20"/>
<path d="M87.6909 0.500416V15.2261H96.3165V18.5658H83.7993V0.500416H87.6909Z" fill="#231F20"/>
<path d="M101.294 5.48497V18.5658H97.7734V5.48497H101.294ZM97.7734 3.46093V0.500416H101.294V3.46093H97.7734Z" fill="#231F20"/>
<path d="M106.784 15.3147C106.94 15.5931 107.143 15.8208 107.391 15.9979C107.639 16.175 107.924 16.3058 108.246 16.3901C108.568 16.4746 108.903 16.5165 109.25 16.5165C109.498 16.5165 109.758 16.4874 110.031 16.428C110.304 16.3691 110.551 16.2761 110.774 16.1497C110.998 16.0233 111.184 15.8547 111.332 15.6437C111.481 15.433 111.555 15.1674 111.555 14.8466C111.555 14.307 111.204 13.9022 110.502 13.6321C109.799 13.3625 108.82 13.0925 107.564 12.8224C107.052 12.7048 106.552 12.5656 106.065 12.4049C105.577 12.2449 105.144 12.0342 104.764 11.7724C104.383 11.5112 104.078 11.1822 103.847 10.7857C103.615 10.3897 103.5 9.90456 103.5 9.33091C103.5 8.48752 103.66 7.79608 103.983 7.25606C104.305 6.71643 104.73 6.29077 105.259 5.97847C105.788 5.66648 106.383 5.44695 107.044 5.32055C107.705 5.19411 108.383 5.13082 109.076 5.13082C109.771 5.13082 110.444 5.19836 111.097 5.33317C111.749 5.46825 112.332 5.69611 112.844 6.01638C113.356 6.33691 113.782 6.76272 114.121 7.29395C114.459 7.82532 114.662 8.49589 114.728 9.30551H111.382C111.332 8.61407 111.076 8.14584 110.614 7.90122C110.151 7.65689 109.605 7.53445 108.978 7.53445C108.779 7.53445 108.564 7.54707 108.333 7.57234C108.102 7.59774 107.89 7.65263 107.701 7.7369C107.511 7.82149 107.35 7.94364 107.217 8.10371C107.085 8.26416 107.019 8.47926 107.019 8.74887C107.019 9.06953 107.135 9.33091 107.366 9.53326C107.597 9.73571 107.899 9.90003 108.271 10.0267C108.643 10.1531 109.068 10.267 109.547 10.3681C110.027 10.4694 110.514 10.5794 111.01 10.6972C111.522 10.8154 112.022 10.9588 112.51 11.1272C112.997 11.2961 113.43 11.5196 113.811 11.7978C114.191 12.0762 114.497 12.4221 114.728 12.8352C114.959 13.2486 115.075 13.7586 115.075 14.3659C115.075 15.2262 114.906 15.9472 114.567 16.5293C114.228 17.1111 113.786 17.5793 113.241 17.9337C112.695 18.2878 112.072 18.537 111.37 18.6797C110.667 18.8232 109.952 18.8948 109.225 18.8948C108.482 18.8948 107.755 18.8191 107.044 18.6674C106.333 18.5154 105.701 18.2624 105.148 17.9083C104.594 17.5541 104.14 17.086 103.785 16.5039C103.429 15.922 103.235 15.1925 103.202 14.3152H106.549C106.549 14.7036 106.626 15.0364 106.784 15.3147Z" fill="#231F20"/>
<path d="M123.996 5.48499V7.88876H121.418V14.3659C121.418 14.9731 121.518 15.3781 121.716 15.5803C121.914 15.7828 122.311 15.8841 122.905 15.8841C123.104 15.8841 123.293 15.8756 123.476 15.8587C123.657 15.8419 123.831 15.8168 123.996 15.7828V18.5658C123.699 18.6166 123.368 18.6502 123.005 18.6674C122.641 18.6839 122.286 18.6925 121.939 18.6925C121.394 18.6925 120.877 18.6543 120.39 18.5789C119.902 18.5027 119.473 18.3551 119.101 18.1359C118.729 17.9168 118.435 17.6046 118.221 17.1997C118.006 16.7949 117.899 16.2636 117.899 15.6057V7.88876H115.767V5.48499H117.899V1.56332H121.418V5.48499H123.996Z" fill="#231F20"/>
<path d="M10.4124 8.26243C10.9528 6.76341 11.3746 5.52594 11.6771 4.54993C11.9797 3.57395 12.131 2.97475 12.131 2.75238C12.131 2.51352 12.0806 2.32819 11.9797 2.19641C11.8787 2.06491 11.7395 1.99874 11.5622 1.99874C11.3362 1.99874 11.1063 2.19026 10.8723 2.57323C10.6381 2.95623 10.3801 3.57215 10.0977 4.42022L8.88737 7.99061L10.4124 8.26243ZM8.80264 11.5857C8.45569 11.5693 8.12674 11.5322 7.81621 11.4746C7.50558 11.417 7.20906 11.3345 6.92666 11.2275C7.05562 11.4913 7.17061 11.7546 7.27158 12.0182C7.37245 12.282 7.45501 12.5414 7.51969 12.7965C7.71334 12.5494 7.91708 12.3252 8.13091 12.1232C8.34459 11.9214 8.5685 11.7422 8.80264 11.5857ZM7.43497 7.84235L6.12785 3.98781C5.78896 3.00768 5.52673 2.36761 5.34113 2.0667C5.1554 1.76607 4.95383 1.61577 4.73598 1.61577C4.56653 1.61577 4.42923 1.68194 4.32446 1.81344C4.21957 1.94522 4.16712 2.12229 4.16712 2.34467C4.16712 2.72353 4.30819 3.38243 4.59073 4.32137C4.87313 5.26031 5.29676 6.49163 5.86156 8.01532C5.90997 7.92472 5.97844 7.86091 6.06733 7.82383C6.15608 7.78676 6.27709 7.76824 6.43043 7.76824C6.47883 7.76824 6.57564 7.77249 6.72089 7.78061C6.86614 7.78883 7.10402 7.80971 7.43497 7.84235ZM6.24886 13.8095C6.38605 13.8095 6.51095 13.746 6.62408 13.618C6.73703 13.4904 6.79349 13.3524 6.79349 13.2042C6.79349 13.0479 6.68257 12.6835 6.46066 12.1108C6.23864 11.5384 5.96243 10.9763 5.63159 10.4244C5.38954 10.0126 5.15151 9.70172 4.91751 9.49168C4.68337 9.28167 4.46163 9.17663 4.25184 9.17663C4.0824 9.17663 3.8948 9.28606 3.68905 9.50404C3.48329 9.72231 3.38042 9.92613 3.38042 10.1156C3.38042 10.3132 3.48128 10.6097 3.683 11.0051C3.88458 11.4004 4.15502 11.8205 4.49392 12.2652C4.84893 12.7515 5.1838 13.13 5.49846 13.4019C5.81316 13.6736 6.06316 13.8095 6.24886 13.8095ZM2.61792 13.513C2.73088 13.6533 2.88822 13.8589 3.08994 14.1308C3.62248 14.8802 4.11454 15.255 4.56653 15.255C4.71969 15.255 4.85699 15.2056 4.97803 15.1067C5.09908 15.0079 5.1596 14.905 5.1596 14.7979C5.1596 14.6744 5.0789 14.4686 4.91751 14.1802C4.75601 13.8919 4.53424 13.5667 4.25184 13.2042C3.92909 12.7841 3.66067 12.4773 3.44698 12.2838C3.23316 12.0905 3.06157 11.9934 2.9326 11.9934C2.65006 11.9934 2.38984 12.1479 2.15195 12.4567C1.91392 12.7656 1.7949 13.13 1.7949 13.5501C1.7949 13.8881 1.87761 14.2649 2.04302 14.6805C2.20829 15.0964 2.44847 15.5144 2.76315 15.9345C3.23922 16.5852 3.83012 17.0854 4.53627 17.4354C5.24229 17.7859 6.02295 17.9605 6.87822 17.9605C8.45166 17.9605 9.76886 17.3613 10.8299 16.163C11.8908 14.9647 12.4215 13.4636 12.4215 11.6599C12.4215 11.1082 12.381 10.6698 12.3004 10.3441C12.2198 10.0188 12.0866 9.78201 11.9011 9.63375C11.5701 9.35385 10.9267 9.10252 9.9706 8.88015C9.01443 8.65777 8.01592 8.54658 6.97506 8.54658C6.68457 8.54658 6.47883 8.59599 6.35779 8.69481C6.23678 8.79366 6.17626 8.96248 6.17626 9.20134C6.17626 9.7617 6.48286 10.1671 7.09611 10.4182C7.70918 10.6698 8.70163 10.7951 10.0735 10.7951H10.5697C10.6827 10.7951 10.7734 10.8383 10.842 10.9248C10.9105 11.0113 10.957 11.141 10.9812 11.314C10.8439 11.4457 10.5616 11.5963 10.134 11.7649C9.70621 11.9337 9.37943 12.1005 9.15362 12.2652C8.66951 12.6279 8.28018 13.058 7.98566 13.5563C7.69103 14.0548 7.5439 14.5261 7.5439 14.9708C7.5439 15.2426 7.60631 15.57 7.73152 15.953C7.85656 16.336 7.91911 16.5728 7.91911 16.6634V16.7499L7.89491 16.8611C7.53973 16.8364 7.2595 16.6246 7.05373 16.2248C6.84796 15.8253 6.74509 15.2921 6.74509 14.6249V14.5137C6.6804 14.5714 6.61802 14.6126 6.5575 14.6373C6.49698 14.662 6.43043 14.6744 6.35779 14.6744C6.28518 14.6744 6.21661 14.6682 6.15205 14.6558C6.08737 14.6435 6.01473 14.6249 5.9342 14.6002C5.9584 14.6909 5.97655 14.7794 5.98867 14.8658C6.00075 14.9523 6.00681 15.0202 6.00681 15.0697C6.00681 15.3744 5.88979 15.6362 5.65583 15.8542C5.42169 16.0725 5.14332 16.1816 4.8207 16.1816C4.31236 16.1816 3.79596 15.9283 3.27149 15.4218C2.74688 14.9152 2.48478 14.4193 2.48478 13.9331C2.48478 13.8425 2.49487 13.7622 2.51504 13.6922C2.53508 13.6223 2.5695 13.5624 2.61792 13.513ZM11.2838 8.47244C12.01 8.61272 12.5224 8.92544 12.8209 9.41138C13.1193 9.89759 13.2687 10.6636 13.2687 11.7093C13.2687 13.7848 12.6575 15.4836 11.4351 16.8055C10.2127 18.1272 8.64934 18.7882 6.74509 18.7882C5.99469 18.7882 5.26649 18.6502 4.56047 18.3743C3.85432 18.0984 3.24728 17.7134 2.73895 17.2192C2.158 16.6758 1.72229 16.1013 1.43181 15.4959C1.14133 14.8905 0.996094 14.2709 0.996094 13.6366C0.996094 12.9283 1.14537 12.3807 1.44391 11.9934C1.74232 11.6063 2.21434 11.3431 2.85998 11.2027C2.73895 10.9145 2.65006 10.6715 2.59371 10.4738C2.53723 10.2762 2.50899 10.1238 2.50899 10.0167C2.50899 9.64612 2.70062 9.26751 3.08389 8.88015C3.46702 8.49303 3.82823 8.29947 4.16712 8.29947C4.31236 8.29947 4.46552 8.32625 4.62705 8.37977C4.78841 8.43361 4.97387 8.52184 5.1838 8.6454C4.56236 6.84989 4.11064 5.46416 3.82823 4.48815C3.54569 3.51217 3.40462 2.83886 3.40462 2.46822C3.40462 1.95759 3.53359 1.5522 3.79192 1.25132C4.05012 0.950682 4.40112 0.800383 4.8449 0.800383C5.60322 0.800383 6.56356 2.53 7.72546 5.98921C7.92703 6.58222 8.08047 7.03934 8.18537 7.36056C8.27412 7.10551 8.39906 6.74282 8.56059 6.27336C9.72249 2.84708 10.7229 1.13394 11.5622 1.13394C11.9737 1.13394 12.3023 1.27602 12.5486 1.56017C12.7947 1.84433 12.9177 2.22554 12.9177 2.70293C12.9177 3.06563 12.7825 3.72836 12.5123 4.692C12.2418 5.65565 11.8325 6.91578 11.2838 8.47244Z" fill="#231F20"/>
</g>
<defs>
<clipPath id="clip0">
<rect width="123" height="23" fill="white" transform="translate(0.996094 0.5)"/>
</clipPath>
</defs>
</svg>
