<svg width="88" height="32" viewBox="0 0 88 32" fill="none" xmlns="http://www.w3.org/2000/svg">
<g clip-path="url(#clip0)">
<path d="M0.768555 16.0291C0.768555 7.22912 7.84726 0.116394 16.6052 0.116394C25.3486 0.116394 32.4273 7.22912 32.4418 16.0291C32.4418 24.8291 25.3631 31.9418 16.6052 31.9418C7.84726 31.9564 0.768555 24.8437 0.768555 16.0291ZM10.6121 25.1491H18.1107C21.4256 25.1491 23.3509 23.1564 23.3654 20.1891C23.3654 18.4728 22.3666 16.8582 20.9913 16.1164C20.6439 15.9564 20.6439 15.4618 20.9624 15.2873C22.1205 14.6182 22.989 13.2946 22.989 11.5637C22.989 8.82912 21.0782 6.92367 17.9225 6.92367H10.6121C10.1923 6.92367 9.84493 7.27276 9.84493 7.69457V13.5855C9.84493 13.9055 10.0331 14.1818 10.3226 14.2982L13.406 15.52C13.8837 15.7091 13.8837 16.4073 13.406 16.5818L10.3226 17.7891C10.0186 17.9055 9.84493 18.1818 9.84493 18.5019V24.3928C9.84493 24.8 10.1923 25.1491 10.6121 25.1491Z" fill="black"/>
<path d="M39.2601 10.0945C39.2601 9.77451 39.5062 9.5127 39.8391 9.5127H47.4969C50.3631 9.5127 51.7383 11.4036 51.7383 13.2218C51.7383 14.4872 51.1882 15.4763 50.392 16.0581C50.0736 16.2909 50.0736 16.7709 50.392 17.0036C51.3619 17.6291 52.0133 18.7781 52.0133 20.1309C52.0133 22.2545 50.5947 24.0872 47.7429 24.0872H39.8246C39.5062 24.0872 39.2456 23.84 39.2456 23.5054V10.0945H39.2601ZM46.6283 15.1563C47.3811 15.1563 47.9167 14.6036 47.9167 13.8909C47.9167 13.1782 47.3955 12.6545 46.6283 12.6545H43.5449C43.2265 12.6545 42.9659 12.9018 42.9659 13.2363V14.6182C42.9659 14.9382 43.212 15.2 43.5449 15.2H46.6138V15.1563H46.6283ZM63.9849 19.0109C63.9849 15.4472 61.7411 13.1491 58.6143 13.1491C55.3283 13.1491 53.0411 15.6072 53.0411 18.6763C53.0411 22.1091 55.5455 24.2182 58.7736 24.2182C60.1777 24.2182 61.6687 23.8691 62.711 23.1563C62.9861 22.9963 63.0584 22.6327 62.8702 22.3709L62.0741 21.1927C61.9148 20.9454 61.5674 20.8727 61.3213 21.0327C60.7278 21.3818 59.9172 21.6145 59.1934 21.6145C58.1222 21.6145 57.3549 21.2218 56.9207 20.6545C56.6456 20.2909 56.9207 19.7527 57.3839 19.7527H63.4203C63.7388 19.7527 63.9994 19.5054 63.9994 19.1709V19.0109H63.9849ZM60.0185 17.5563H57.2681C56.8338 17.5563 56.5588 17.0472 56.7904 16.6981C57.1088 16.1891 57.6879 15.7527 58.6288 15.7527C59.6132 15.7527 60.1922 16.1891 60.5107 16.6981C60.7278 17.0763 60.4528 17.5563 60.0185 17.5563ZM64.535 13.6145H66.8222C67.0538 13.6145 67.2854 13.7745 67.3433 13.9782L69.0659 18.7927C69.2541 19.3018 69.9345 19.3018 70.1227 18.7927L71.8453 13.9782C71.9177 13.7454 72.1493 13.6145 72.3664 13.6145H74.6826C75.0734 13.6145 75.3485 14.0072 75.2037 14.4L71.5123 23.8109C71.4255 24.0145 71.2084 24.1745 70.9912 24.1745H68.1974C67.9658 24.1745 67.7631 24.0436 67.6762 23.8109L64.0283 14.4C63.8691 14.0363 64.1441 13.6145 64.535 13.6145ZM78.5911 25.4109C79.3438 25.4109 79.836 25.2509 80.0097 24.8145L80.0821 24.6254C80.1979 24.3781 80.1979 24.1018 80.0821 23.84L76.3618 14.3127C76.217 13.9491 76.5065 13.5563 76.8829 13.5563H79.1701C79.4017 13.5563 79.6333 13.7163 79.6912 13.92L81.4138 18.7345C81.602 19.2436 82.2824 19.2436 82.4706 18.7345L84.1932 13.92C84.2801 13.6872 84.4972 13.5563 84.7143 13.5563H87.0305C87.4213 13.5563 87.6964 13.9491 87.5516 14.3418L83.122 25.6145C82.2679 27.84 80.6901 28.3491 78.6924 28.3782C78.5042 28.3782 78.1713 28.3491 77.8238 28.3054C77.5054 28.2618 77.3027 27.9563 77.3461 27.6654L77.6501 25.8472C77.6935 25.5418 77.9975 25.3382 78.2871 25.3818C78.4173 25.4109 78.5042 25.4109 78.5911 25.4109Z" fill="black"/>
<path d="M48.2061 19.6218C48.2061 20.4073 47.656 20.96 46.7585 20.96V20.9891H43.5449C43.2264 20.9891 42.9658 20.7418 42.9658 20.4073V18.8218C42.9658 18.5018 43.2119 18.24 43.5449 18.24H46.7585C47.685 18.24 48.2061 18.8945 48.2061 19.6218Z" fill="white"/>
</g>
<defs>
<clipPath id="clip0">
<rect width="87" height="32" fill="white" transform="translate(0.696289)"/>
</clipPath>
</defs>
</svg>
