<svg width="83" height="34" viewBox="0 0 83 34" fill="none" xmlns="http://www.w3.org/2000/svg">
<g clip-path="url(#clip0)">
<path fill-rule="evenodd" clip-rule="evenodd" d="M51.0322 19.1227C51.4257 19.6375 51.6221 20.2731 51.6221 21.0288C51.6221 22.3314 51.1772 23.3153 50.2874 23.9797C49.3975 24.6449 48.249 24.977 46.8437 24.977H40.8462V11.9389H46.3218C47.7913 11.9389 48.9333 12.229 49.7462 12.8092C50.558 13.3893 50.9644 14.3042 50.9644 15.5559C50.9644 16.572 50.436 17.3859 49.3782 17.9991C50.0873 18.2337 50.6386 18.6079 51.0322 19.1227ZM43.9807 17.0609H46.4951C46.8437 17.0609 47.1436 16.9561 47.395 16.7475C47.6463 16.5398 47.772 16.2265 47.772 15.8092C47.772 14.871 47.2822 14.4019 46.3025 14.4019H43.9807V17.0609ZM47.8977 22.1622C48.2399 21.9017 48.4105 21.4844 48.4105 20.9115C48.4105 20.3636 48.2371 19.9733 47.8885 19.7387C47.54 19.5041 47.0951 19.3868 46.5538 19.3868H43.9807V22.5338H46.6116C47.1272 22.5463 47.5564 22.4228 47.8977 22.1622Z" fill="black"/>
<path fill-rule="evenodd" clip-rule="evenodd" d="M52.7891 14.0229H56.0639V11.7152H52.7891V14.0229ZM52.8526 15.5475H56.0204L56.0414 25.5605H52.8526V15.5475Z" fill="black"/>
<path fill-rule="evenodd" clip-rule="evenodd" d="M65.8401 15.6226C66.5986 16.0978 66.9794 16.7696 66.9794 17.6392V25.4658C66.9794 26.8702 66.5361 27.9474 65.652 28.6965C64.7664 29.4457 63.5052 29.8207 61.8688 29.8207C61.0231 29.8207 60.2841 29.7601 59.6502 29.6396C59.0167 29.5201 58.5216 29.3592 58.1654 29.1579V26.5292C58.5478 26.7167 59.0833 26.8978 59.7696 27.0715C60.4563 27.2452 61.1164 27.3325 61.7504 27.3325C62.6088 27.3325 63.2125 27.1579 63.5626 26.8104C63.9121 26.4621 64.0868 25.974 64.0868 25.3453V24.7635C63.4134 25.3518 62.5683 25.6468 61.552 25.6468C60.1519 25.5797 59.07 25.1284 58.3038 24.2919C57.5381 23.4565 57.1553 22.2221 57.1553 20.5897C57.1553 18.4756 57.634 17.0004 58.5908 16.1649C59.5482 15.3284 60.938 14.9102 62.76 14.9102C64.054 14.9102 65.0801 15.1473 65.8401 15.6226ZM60.691 22.6063C61.0928 23.1477 61.631 23.4188 62.3044 23.4188C62.9645 23.4188 63.559 23.2654 64.0868 22.9574V18.3019C64.0868 17.6199 63.559 17.278 62.5022 17.278C60.8919 17.278 60.0863 18.3212 60.0863 20.4086C60.0863 21.3324 60.2882 22.064 60.691 22.6063Z" fill="black"/>
<path fill-rule="evenodd" clip-rule="evenodd" d="M68.0703 25.5605H70.2535V12.7801H68.0703V25.5605Z" fill="black"/>
<path fill-rule="evenodd" clip-rule="evenodd" d="M71.981 11.8837H76.5299C80.6765 11.8837 82.7507 14.0578 82.7507 18.404C82.7507 22.7646 80.6765 24.9449 76.5299 24.9449H71.981V11.8837ZM76.3157 23.1233C77.7666 23.1233 78.8362 22.7448 79.5238 21.9878C80.2102 21.2309 80.5531 20.0362 80.5531 18.4039C80.5531 16.7726 80.2102 15.5779 79.5238 14.8209C78.8362 14.064 77.7666 13.6855 76.3157 13.6855H74.1191V23.1233H76.3157Z" fill="black"/>
<path fill-rule="evenodd" clip-rule="evenodd" d="M4.51416 20.3159C4.8589 20.9607 5.22761 21.5921 5.61936 22.2083C8.08876 21.7688 10.0484 20.5177 11.5177 18.6827C12.5603 17.3831 14.5982 18.8791 13.5566 20.1795C11.8357 22.3258 9.68525 23.7446 7.16882 24.4092C7.50436 24.8442 7.85372 25.2675 8.21596 25.6828C9.68338 25.1787 10.7582 24.7123 11.5896 24.3204C12.8137 23.7464 14.518 22.6217 15.9311 22.6217C16.5902 22.6217 17.3027 22.7769 18.04 22.9867C21.5409 23.9976 24.5348 25.2917 28.1158 25.9357C28.5214 25.4801 28.9104 25.0155 29.2847 24.5383C19.3176 22.672 12.1648 17.732 12.1648 8.49516C12.1648 5.44936 13.4018 1.88791 17.8419 1.88791C21.4331 1.88791 22.5871 4.16955 23.5661 6.87093C25.604 12.4933 28.2633 14.2333 34.4603 14.1876C35.2586 11.2414 35.631 8.09336 35.5452 4.7839C34.6327 4.07538 33.4685 3.39375 32.1144 2.7767C32.4545 3.77223 32.7716 4.81888 33.0638 5.91663C33.487 7.50412 30.9973 8.11127 30.5751 6.52295C30.0875 4.68973 29.5418 3.04128 28.9464 1.56324C27.9868 1.25741 26.9766 0.98297 25.9295 0.750677C28.7934 4.48973 27.6116 10.0459 32.7274 9.14713C34.4115 8.85126 34.876 11.2683 33.1929 11.5651C22.4405 13.4558 29.0404 0 17.8106 0C11.6071 0 10.219 4.74085 10.219 9.39473C10.219 10.7401 10.4485 12.1194 10.4485 13.1634C10.4485 16.7939 8.11638 19.4862 4.51416 20.3159Z" fill="black"/>
<path fill-rule="evenodd" clip-rule="evenodd" d="M13.73 30.6469C15.1412 31.646 16.6584 32.5527 18.277 33.3635C19.4494 32.7752 21.5622 31.5204 21.6349 31.4514C21.2672 31.298 21.0035 31.1958 20.8358 31.1258C19.5168 30.5742 18.1442 29.915 16.6878 29.8038C16.3063 29.7752 15.92 29.7966 15.5513 29.8935C15.2103 29.9823 14.8849 30.1168 14.5669 30.263C14.4037 30.3374 14.2424 30.4155 14.0793 30.4926C14.0424 30.5096 13.7659 30.672 13.73 30.6469Z" fill="black"/>
<path fill-rule="evenodd" clip-rule="evenodd" d="M9.98828 27.5522C10.4981 28.0445 11.0262 28.5235 11.5756 28.9854L11.9093 28.8293C13.1334 28.2544 14.6183 27.2383 16.0314 27.2383C16.6895 27.2383 17.6749 27.3899 18.4095 27.6033C20.5332 28.215 22.3104 28.8625 24.3595 29.4787C24.6545 29.2428 24.8877 29.0625 25.1734 28.8177C25.4435 28.5863 25.8868 28.1567 26.0269 28.0329C25.7891 27.9495 23.6073 27.2383 23.1115 27.076C22.0053 26.7145 20.9536 26.2957 19.8346 25.9719C18.7524 25.658 17.5135 25.2131 16.3715 25.2131C15.1161 25.1414 14.0321 25.6813 12.9195 26.1934C11.9425 26.6428 10.9939 27.163 9.98828 27.5522Z" fill="black"/>
<path fill-rule="evenodd" clip-rule="evenodd" d="M3.74608 3.10687C2.68422 3.63334 1.76061 4.19836 1.00845 4.78402C0.920887 8.11767 1.29973 11.2863 2.10812 14.2513C3.22621 13.6944 3.32945 12.6406 3.26585 10.645C3.17736 7.87733 3.06951 5.51497 3.74608 3.10687Z" fill="black"/>
<path fill-rule="evenodd" clip-rule="evenodd" d="M10.1934 0.84906C9.08362 1.11004 8.01994 1.41588 7.01703 1.75848C6.27227 3.2132 5.94413 4.64102 5.81508 6.01411C5.45744 9.81238 7.19774 14.8832 2.86084 16.6134C3.03598 17.0923 3.22308 17.5649 3.42127 18.0321C11.9807 15.668 4.38359 6.40514 10.1934 0.84906Z" fill="black"/>
<path fill-rule="evenodd" clip-rule="evenodd" d="M33.8336 16.7556L33.8918 16.5905L33.6152 16.5681C30.449 16.3448 27.9058 15.6184 25.8401 14.3456C24.0225 13.2264 22.8297 11.8165 22.1937 10.0362C21.9835 9.44699 21.8084 8.89898 21.6388 8.36987C20.8599 5.93663 20.2967 4.17877 17.8826 4.17877C15.5377 4.17877 14.3975 5.60839 14.3975 8.55098C14.6878 15.8821 20.1677 20.7251 30.684 22.9574L30.7504 22.9709L30.8481 22.8166L30.9154 22.7117C31.0057 22.5709 31.0924 22.4193 31.1772 22.2651C31.1818 22.2588 31.1854 22.2516 31.1891 22.2453C31.2942 22.0561 31.3965 21.8633 31.4961 21.6722C31.5458 21.578 31.5938 21.4848 31.6426 21.3933C31.6952 21.2955 31.7477 21.1987 31.7976 21.109L31.8639 20.9888L31.9358 20.8623H31.934L32.0233 20.7018L31.722 20.6516C27.3482 19.9153 23.6482 18.4695 21.0231 16.4704C18.0661 14.2183 16.6751 11.1071 17.0014 7.47295C17.0604 6.81286 17.4641 6.57788 17.8218 6.57788C18.2218 6.57788 18.6984 6.8703 18.8624 7.52412C20.352 13.4542 23.2168 17.4139 32.8788 18.8283L32.9801 18.8444L33.0511 18.6642L33.0714 18.6166L33.1709 18.3923C33.2696 18.169 33.3544 17.9798 33.4354 17.7879C33.535 17.5565 33.6309 17.3188 33.7461 17.004L33.7728 16.9287L33.8355 16.7556H33.8336Z" fill="black"/>
</g>
<defs>
<clipPath id="clip0">
<rect width="82" height="34" fill="white" transform="translate(0.996094)"/>
</clipPath>
</defs>
</svg>
