<svg width="141" height="28" viewBox="0 0 141 28" fill="none" xmlns="http://www.w3.org/2000/svg">
<g clip-path="url(#clip0)">
<path d="M2.71228 24.0998V25.0894H5.43417V25.9043H2.71228V27.8836H1.82471V23.2848H6.67678V24.0998H2.71228ZM14.7241 25.5551C14.7241 26.3118 14.3691 26.9522 13.7182 27.4179C13.4815 27.5925 13.1265 27.7671 12.7715 27.8836C12.4164 28 12.0022 28.0582 11.588 28.0582C11.1738 28.0582 10.7596 28 10.4046 27.8836C10.0496 27.7671 9.7537 27.6507 9.45784 27.4179C8.80696 26.9522 8.45193 26.3118 8.45193 25.5551C8.45193 24.7983 8.80696 24.2162 9.45784 23.7505C9.7537 23.5759 10.0496 23.4012 10.4046 23.2848C10.7596 23.1684 11.1738 23.1102 11.5288 23.1102C11.9431 23.1102 12.2981 23.1684 12.6531 23.2848C13.0081 23.4012 13.304 23.5177 13.5999 23.7505C14.3691 24.2162 14.7241 24.7983 14.7241 25.5551ZM13.7774 25.5551C13.7774 25.3222 13.7182 25.0894 13.5999 24.9147C13.4815 24.7401 13.3632 24.5655 13.1857 24.3908C13.0081 24.2744 12.7715 24.158 12.5348 24.0416C12.2981 23.9833 12.0022 23.9251 11.6472 23.9251C11.3513 23.9251 11.0555 23.9833 10.7596 24.0416C10.5229 24.0998 10.2862 24.2162 10.1087 24.3908C9.93122 24.5073 9.7537 24.6819 9.69453 24.9147C9.57619 25.0894 9.51701 25.3222 9.51701 25.5551C9.51701 25.7879 9.57619 26.0208 9.69453 26.1954C9.81287 26.37 9.93122 26.5447 10.1087 26.7193C10.2862 26.8357 10.5229 26.9522 10.7596 27.0686C10.9963 27.185 11.2922 27.185 11.6472 27.185C11.9431 27.185 12.2389 27.1268 12.5348 27.0686C12.7715 27.0104 13.0081 26.894 13.1857 26.7193C13.3632 26.6029 13.5407 26.4283 13.5999 26.1954C13.7182 26.0208 13.7774 25.7879 13.7774 25.5551ZM22.1206 27.8836L20.9371 26.1954H18.6294V27.8836H17.7419V23.2848H21.5288C21.7655 23.2848 22.0022 23.343 22.1797 23.4012C22.3573 23.4594 22.5348 23.5759 22.7123 23.6923C22.8306 23.8087 22.949 23.9833 23.0673 24.158C23.1265 24.3326 23.1857 24.5655 23.1857 24.7401C23.1857 25.0894 23.0673 25.4386 22.8898 25.6715C22.7123 25.9043 22.4164 26.079 22.0022 26.1372L23.2448 27.8836H22.1206ZM21.3513 25.3804C21.8839 25.3804 22.1797 25.1476 22.1797 24.7401C22.1797 24.5073 22.1206 24.3326 21.9431 24.2162C21.8247 24.0998 21.588 24.0416 21.2922 24.0416H18.6294V25.3222H21.3513V25.3804ZM31.7655 27.8836V24.0416V24.0998L29.3987 27.2432L27.0318 24.0998V24.158V27.9418H26.1442V23.2848H27.5052L29.3987 25.9043L31.2922 23.2848H32.6531V27.8836H31.7655ZM35.9075 27.8836V23.2848H40.7596V24.0998H36.7951V25.0894H39.517V25.9043H36.7951V27.0686H40.9371V27.8836H35.9075ZM48.2152 27.8836L46.9726 26.1954H44.6649V27.8836H43.7774V23.2848H47.5644C47.801 23.2848 48.0377 23.343 48.2152 23.4012C48.3928 23.4594 48.5703 23.5759 48.7478 23.6923C48.8661 23.8087 48.9845 23.9833 49.1028 24.158C49.162 24.3326 49.2212 24.5655 49.2212 24.7401C49.2212 25.0894 49.1028 25.4386 48.9253 25.6715C48.7478 25.9043 48.4519 26.079 48.0377 26.1372L49.2803 27.8836H48.2152ZM47.3868 25.3804C47.9194 25.3804 48.2152 25.1476 48.2152 24.7401C48.2152 24.5073 48.1561 24.3326 47.9786 24.2162C47.801 24.0998 47.6235 24.0416 47.3277 24.0416H44.6649V25.3222H47.3868V25.3804ZM52.2389 27.8836V23.2848H53.1265V27.0686H56.7359V27.8836H52.2389ZM60.8188 26.079V27.8836H59.9312V26.079L57.2685 23.2848H58.3928L60.4046 25.3804L62.4164 23.2848H63.5407L60.8188 26.079ZM74.6649 24.6237C74.4283 24.3908 74.1324 24.2162 73.8365 24.0998C73.5407 23.9833 73.1857 23.9251 72.7715 23.9251C72.4164 23.9251 72.1206 23.9833 71.8839 24.0416C71.588 24.0998 71.4105 24.2162 71.1738 24.3908C70.9963 24.5073 70.8188 24.6819 70.7596 24.9147C70.6413 25.0894 70.5821 25.3222 70.5821 25.5551C70.5821 25.7879 70.6413 26.0208 70.7596 26.1954C70.878 26.37 70.9963 26.5447 71.1738 26.7193C71.3513 26.894 71.588 26.9522 71.8839 27.0686C72.1797 27.1268 72.4756 27.185 72.8306 27.185C73.2448 27.185 73.5999 27.1268 73.8957 27.0104C74.1916 26.894 74.4874 26.7193 74.7241 26.4283L75.4933 26.8357C75.1383 27.2432 74.7241 27.5343 74.3099 27.7089C73.8957 27.8836 73.3632 28 72.7715 28C72.2981 28 71.8839 27.9418 71.4697 27.8253C71.0555 27.7089 70.7596 27.5343 70.4638 27.3014C70.1679 27.0686 69.9904 26.8357 69.8129 26.5447C69.6945 26.2536 69.5762 25.9043 69.5762 25.5551C69.5762 24.7983 69.9312 24.2162 70.5821 23.7505C70.8188 23.5759 71.1738 23.4012 71.5288 23.2848C71.8839 23.1684 72.2981 23.1102 72.7123 23.1102C73.304 23.1102 73.8365 23.2266 74.2507 23.4012C74.7241 23.6341 75.1383 23.9251 75.4933 24.3326L74.6649 24.6237ZM78.3928 27.8836V23.2848H79.2803V27.0686H82.8898V27.8836H78.3928ZM85.4342 27.8836V23.2848H90.2862V24.0998H86.3218V25.0894H89.0436V25.9043H86.3218V27.0686H90.4638V27.8836H85.4342ZM97.7419 27.8836L97.2093 26.894H94.0732L93.5407 27.8836H92.5348L95.0791 23.2848H96.2034L98.7478 27.8836H97.7419ZM95.6709 24.0416L94.5466 26.079H96.7951L95.6709 24.0416ZM105.671 27.8836L104.428 26.1954H102.18V27.8836H101.292V23.2848H105.079C105.316 23.2848 105.553 23.343 105.73 23.4012C105.908 23.4594 106.085 23.5759 106.263 23.6923C106.381 23.8087 106.499 23.9833 106.618 24.158C106.677 24.3326 106.736 24.5655 106.736 24.7401C106.736 25.0894 106.618 25.4386 106.44 25.6715C106.263 25.9043 105.967 26.079 105.553 26.1372L106.795 27.8836H105.671ZM104.902 25.3804C105.434 25.3804 105.73 25.1476 105.73 24.7401C105.73 24.5073 105.671 24.3326 105.493 24.2162C105.375 24.0998 105.138 24.0416 104.842 24.0416H102.18V25.3222H104.902V25.3804ZM114.547 25.4969C114.783 25.6133 115.02 25.7879 115.138 25.9626C115.257 26.1372 115.316 26.37 115.316 26.6611C115.316 27.0686 115.138 27.3596 114.842 27.5925C114.547 27.8253 114.073 27.8836 113.482 27.8836H109.695V23.2848H113.541C113.777 23.2848 114.014 23.343 114.192 23.4012C114.369 23.4594 114.547 23.5759 114.665 23.6341C114.783 23.7505 114.902 23.8669 114.961 24.0416C115.02 24.2162 115.079 24.3908 115.079 24.5655C115.138 24.9147 114.902 25.264 114.547 25.4969ZM113.541 25.1476C113.777 25.1476 113.955 25.0894 114.073 24.973C114.192 24.8565 114.251 24.7401 114.251 24.5655C114.251 24.3908 114.192 24.2744 114.073 24.2162C113.955 24.0998 113.777 24.0998 113.6 24.0998H110.641V25.1476H113.541ZM113.482 27.0686C113.777 27.0686 114.014 27.0104 114.132 26.9522C114.31 26.8357 114.369 26.7193 114.369 26.5447C114.369 26.37 114.31 26.2536 114.132 26.1372C114.014 26.0208 113.777 25.9626 113.482 25.9626H110.523V27.0686H113.482ZM122.771 27.8836L122.239 26.894H119.103L118.57 27.8836H117.564L120.109 23.2848H121.233L123.777 27.8836H122.771ZM120.641 24.0416L119.517 26.079H121.766L120.641 24.0416ZM130.286 27.8836L127.091 24.0416V27.8836H126.203V23.2848H127.564L130.76 27.1268V23.2848H131.647V27.8836H130.286ZM139.635 24.6237C139.399 24.3908 139.103 24.2162 138.807 24.0998C138.511 23.9833 138.156 23.9251 137.742 23.9251C137.387 23.9251 137.091 23.9833 136.854 24.0416C136.558 24.0998 136.381 24.2162 136.144 24.3908C135.967 24.5073 135.789 24.6819 135.73 24.9147C135.612 25.0894 135.553 25.3222 135.553 25.5551C135.553 25.7879 135.612 26.0208 135.73 26.1954C135.848 26.37 135.967 26.5447 136.144 26.7193C136.322 26.894 136.558 26.9522 136.854 27.0686C137.15 27.1268 137.446 27.185 137.801 27.185C138.215 27.185 138.57 27.1268 138.866 27.0104C139.162 26.894 139.458 26.7193 139.695 26.4283L140.464 26.8357C140.109 27.2432 139.695 27.5343 139.28 27.7089C138.866 27.8836 138.334 28 137.742 28C137.269 28 136.854 27.9418 136.44 27.8253C136.026 27.7089 135.73 27.5343 135.434 27.3014C135.138 27.0686 134.961 26.8357 134.783 26.5447C134.665 26.2536 134.547 25.9043 134.547 25.5551C134.547 24.7983 134.902 24.2162 135.553 23.7505C135.789 23.5759 136.144 23.4012 136.499 23.2848C136.854 23.1684 137.268 23.1102 137.683 23.1102C138.274 23.1102 138.807 23.2266 139.221 23.4012C139.695 23.6341 140.109 23.9251 140.464 24.3326L139.635 24.6237Z" fill="black"/>
<path d="M4.01391 4.48232C3.36302 4.48232 2.88965 3.95841 2.88965 3.37629C2.88965 2.73596 3.42219 2.27026 4.01391 2.27026C4.6648 2.27026 5.13817 2.79417 5.13817 3.37629C5.19734 4.01663 4.6648 4.48232 4.01391 4.48232Z" fill="black"/>
<path d="M4.01382 4.42413C4.60553 4.42413 5.07891 3.95843 5.07891 3.37631C5.07891 2.79419 4.60553 2.32849 4.01382 2.32849C3.4221 2.32849 2.94873 2.79419 2.94873 3.37631C2.94873 3.95843 3.4221 4.42413 4.01382 4.42413Z" fill="black"/>
<path d="M2.12035 11.2932C1.46947 11.2932 0.996094 10.7693 0.996094 10.1871C0.996094 9.54681 1.52864 9.08112 2.12035 9.08112C2.77124 9.08112 3.24461 9.60502 3.24461 10.1871C3.30379 10.8275 2.77124 11.2932 2.12035 11.2932Z" fill="black"/>
<path d="M2.12124 11.2349C2.71296 11.2349 3.18633 10.7692 3.18633 10.1871C3.18633 9.60498 2.71296 9.13928 2.12124 9.13928C1.52953 9.13928 1.05615 9.60498 1.05615 10.1871C1.05615 10.7692 1.52953 11.2349 2.12124 11.2349Z" fill="black"/>
<path d="M2.12035 7.45113C1.52864 7.45113 0.996094 6.98544 0.996094 6.3451C0.996094 5.70477 1.52864 5.23907 2.12035 5.23907C2.77124 5.23907 3.30379 5.70477 3.30379 6.3451C3.30379 6.98544 2.77124 7.45113 2.12035 7.45113Z" fill="black"/>
<path d="M2.12124 7.39294C2.71296 7.39294 3.18633 6.92724 3.18633 6.34512C3.18633 5.763 2.71296 5.2973 2.12124 5.2973C1.52953 5.2973 1.05615 5.763 1.05615 6.34512C1.05615 6.92724 1.52953 7.39294 2.12124 7.39294Z" fill="black"/>
<path d="M7.38647 2.73598C6.73558 2.73598 6.26221 2.21208 6.26221 1.62995C6.26221 1.04783 6.79475 0.523926 7.38647 0.523926C8.03735 0.523926 8.51073 1.04783 8.51073 1.62995C8.51073 2.21208 8.03735 2.73598 7.38647 2.73598Z" fill="black"/>
<path d="M7.38687 2.67779C7.97858 2.67779 8.45196 2.21209 8.45196 1.62997C8.45196 1.04785 7.97858 0.582153 7.38687 0.582153C6.79515 0.582153 6.32178 1.04785 6.32178 1.62997C6.32178 2.21209 6.79515 2.67779 7.38687 2.67779Z" fill="black"/>
<path d="M17.4458 4.65699C17.0316 4.65699 16.6766 4.42414 16.4399 4.07487C16.144 3.55096 16.3215 2.85242 16.8541 2.56136C17.0316 2.44493 17.2091 2.38672 17.4458 2.38672C17.86 2.38672 18.215 2.61957 18.4517 2.96884C18.6292 3.20169 18.6292 3.55096 18.5701 3.84202C18.5109 4.13308 18.2742 4.36593 18.0375 4.54057C17.8008 4.59878 17.6233 4.65699 17.4458 4.65699Z" fill="black"/>
<path d="M17.4459 4.59875C18.0377 4.59875 18.511 4.13305 18.511 3.55093C18.511 2.96881 18.0377 2.50311 17.4459 2.50311C16.8542 2.50311 16.3809 2.96881 16.3809 3.55093C16.3809 4.13305 16.8542 4.59875 17.4459 4.59875Z" fill="black"/>
<path d="M14.4872 2.96882C14.1914 2.96882 13.9547 2.85239 13.7772 2.67776C13.3038 2.27027 13.2446 1.57173 13.6588 1.10603C13.8955 0.873183 14.1914 0.698547 14.5464 0.698547C14.8423 0.698547 15.0789 0.814971 15.2565 0.989608C15.7298 1.39709 15.789 2.09564 15.3748 2.56133C15.1381 2.79418 14.7831 2.96882 14.4872 2.96882Z" fill="black"/>
<path d="M14.4875 2.91064C15.0792 2.91064 15.5525 2.44494 15.5525 1.86282C15.5525 1.2807 15.0792 0.815002 14.4875 0.815002C13.8957 0.815002 13.4224 1.2807 13.4224 1.86282C13.4224 2.44494 13.8957 2.91064 14.4875 2.91064Z" fill="black"/>
<path d="M11.1143 2.3285C10.996 2.3285 10.8776 2.3285 10.7001 2.27029C10.4042 2.15386 10.1676 1.97923 10.0492 1.68817C9.93087 1.39711 9.93087 1.10604 9.99004 0.814984C10.1676 0.349288 10.5818 0.0582275 11.0551 0.0582275C11.1735 0.0582275 11.2918 0.0582275 11.4693 0.11644C11.7652 0.232864 12.0019 0.4075 12.1202 0.69856C12.2386 0.989621 12.2386 1.28068 12.1794 1.57174C12.0019 2.03744 11.5877 2.3285 11.1143 2.3285Z" fill="black"/>
<path d="M11.1145 2.27026C11.7062 2.27026 12.1796 1.80456 12.1796 1.22244C12.1796 0.640318 11.7062 0.174622 11.1145 0.174622C10.5228 0.174622 10.0494 0.640318 10.0494 1.22244C9.99026 1.80456 10.5228 2.27026 11.1145 2.27026Z" fill="black"/>
<path d="M4.01391 14.262C3.36302 14.262 2.88965 13.7381 2.88965 13.156C2.88965 12.5156 3.42219 12.0499 4.01391 12.0499C4.6648 12.0499 5.13817 12.5738 5.13817 13.156C5.19734 13.7963 4.6648 14.262 4.01391 14.262Z" fill="black"/>
<path d="M4.01382 14.2038C4.60553 14.2038 5.07891 13.7381 5.07891 13.156C5.07891 12.5739 4.60553 12.1082 4.01382 12.1082C3.4221 12.1082 2.94873 12.5739 2.94873 13.156C2.94873 13.7381 3.4221 14.2038 4.01382 14.2038Z" fill="black"/>
<path d="M7.38647 15.9501C8.03735 15.9501 8.51073 15.4262 8.51073 14.8441C8.51073 14.2037 7.97818 13.738 7.38647 13.738C6.73558 13.738 6.26221 14.2619 6.26221 14.8441C6.26221 15.4262 6.73558 15.9501 7.38647 15.9501Z" fill="black"/>
<path d="M7.38687 15.8337C7.97858 15.8337 8.45196 15.368 8.45196 14.7859C8.45196 14.2037 7.97858 13.738 7.38687 13.738C6.79515 13.738 6.32178 14.2037 6.32178 14.7859C6.32178 15.368 6.79515 15.8337 7.38687 15.8337Z" fill="black"/>
<path d="M17.4458 14.1456C17.2683 14.1456 17.0316 14.0873 16.8541 13.9709C16.6174 13.7963 16.3807 13.5634 16.3215 13.2724C16.2624 12.9813 16.2624 12.6903 16.4399 12.3992C16.6174 12.0499 17.0316 11.8171 17.4458 11.8171C17.6233 11.8171 17.86 11.8753 18.0375 11.9917C18.2742 12.1664 18.5109 12.3992 18.57 12.6903C18.6292 12.9813 18.6292 13.2724 18.4517 13.5634C18.215 13.9127 17.86 14.1456 17.4458 14.1456Z" fill="black"/>
<path d="M17.4459 14.0873C18.0377 14.0873 18.511 13.6216 18.511 13.0395C18.511 12.4574 18.0377 11.9917 17.4459 11.9917C16.8542 11.9917 16.3809 12.4574 16.3809 13.0395C16.3809 13.6216 16.8542 14.0873 17.4459 14.0873Z" fill="black"/>
<path d="M14.4873 15.8337C14.1323 15.8337 13.8364 15.6591 13.5997 15.4262C13.1855 14.9605 13.2447 14.262 13.7181 13.8545C13.8956 13.6798 14.1915 13.5634 14.4281 13.5634C14.7832 13.5634 15.079 13.7381 15.3157 13.9709C15.7299 14.4366 15.6708 15.1351 15.1974 15.5426C15.0199 15.7173 14.724 15.8337 14.4873 15.8337Z" fill="black"/>
<path d="M14.4875 15.7755C15.0792 15.7755 15.5525 15.3098 15.5525 14.7277C15.5525 14.1456 15.0792 13.6799 14.4875 13.6799C13.8957 13.6799 13.4224 14.1456 13.4224 14.7277C13.4224 15.3098 13.8957 15.7755 14.4875 15.7755Z" fill="black"/>
<path d="M11.1144 16.4158C10.641 16.4158 10.2268 16.1248 10.0493 15.6591C9.93093 15.368 9.93093 15.077 10.1084 14.7859C10.2268 14.4948 10.4635 14.3202 10.7593 14.2038C10.8777 14.1456 10.996 14.1456 11.1735 14.1456C11.6469 14.1456 12.0611 14.4366 12.2386 14.9023C12.4753 15.4844 12.1203 16.1248 11.5286 16.3576C11.3511 16.3576 11.2327 16.4158 11.1144 16.4158Z" fill="black"/>
<path d="M11.1145 16.3576C11.7062 16.3576 12.1796 15.8919 12.1796 15.3098C12.1796 14.7277 11.7062 14.262 11.1145 14.262C10.5228 14.262 10.0494 14.7277 10.0494 15.3098C9.99026 15.8919 10.5228 16.3576 11.1145 16.3576Z" fill="black"/>
<path d="M104.073 4.48232C103.422 4.48232 102.949 3.95841 102.949 3.37629C102.949 2.73596 103.481 2.27026 104.073 2.27026C104.724 2.27026 105.197 2.79417 105.197 3.37629C105.256 4.01663 104.724 4.48232 104.073 4.48232Z" fill="black"/>
<path d="M104.073 4.42413C104.665 4.42413 105.138 3.95843 105.138 3.37631C105.138 2.79419 104.665 2.32849 104.073 2.32849C103.481 2.32849 103.008 2.79419 103.008 3.37631C103.008 3.95843 103.481 4.42413 104.073 4.42413Z" fill="black"/>
<path d="M102.179 11.2932C101.529 11.2932 101.055 10.7693 101.055 10.1871C101.055 9.54681 101.588 9.08112 102.179 9.08112C102.83 9.08112 103.304 9.60502 103.304 10.1871C103.304 10.8275 102.83 11.2932 102.179 11.2932Z" fill="black"/>
<path d="M102.179 11.2349C102.771 11.2349 103.244 10.7692 103.244 10.1871C103.244 9.60498 102.771 9.13928 102.179 9.13928C101.588 9.13928 101.114 9.60498 101.114 10.1871C101.114 10.7692 101.588 11.2349 102.179 11.2349Z" fill="black"/>
<path d="M102.179 7.45113C101.529 7.45113 101.055 6.92723 101.055 6.3451C101.055 5.70477 101.588 5.23907 102.179 5.23907C102.83 5.23907 103.304 5.76298 103.304 6.3451C103.304 6.98544 102.83 7.45113 102.179 7.45113Z" fill="black"/>
<path d="M102.179 7.39294C102.771 7.39294 103.244 6.92724 103.244 6.34512C103.244 5.763 102.771 5.2973 102.179 5.2973C101.588 5.2973 101.114 5.763 101.114 6.34512C101.114 6.92724 101.588 7.39294 102.179 7.39294Z" fill="black"/>
<path d="M107.446 2.73598C106.795 2.73598 106.321 2.21208 106.321 1.62995C106.321 1.04783 106.854 0.523926 107.446 0.523926C108.096 0.523926 108.57 1.04783 108.57 1.62995C108.57 2.21208 108.096 2.73598 107.446 2.73598Z" fill="black"/>
<path d="M107.446 2.67779C108.038 2.67779 108.511 2.21209 108.511 1.62997C108.511 1.04785 108.038 0.582153 107.446 0.582153C106.854 0.582153 106.381 1.04785 106.381 1.62997C106.381 2.21209 106.854 2.67779 107.446 2.67779Z" fill="black"/>
<path d="M117.505 4.65699C117.091 4.65699 116.736 4.42414 116.499 4.07487C116.203 3.55096 116.381 2.85242 116.913 2.56136C117.091 2.44493 117.268 2.38672 117.505 2.38672C117.919 2.38672 118.274 2.61957 118.511 2.96884C118.688 3.20169 118.688 3.55096 118.629 3.84202C118.57 4.13308 118.333 4.36593 118.097 4.54057C117.86 4.59878 117.682 4.65699 117.505 4.65699Z" fill="black"/>
<path d="M117.505 4.59875C118.097 4.59875 118.57 4.13305 118.57 3.55093C118.57 2.96881 118.097 2.50311 117.505 2.50311C116.913 2.50311 116.44 2.96881 116.44 3.55093C116.44 4.13305 116.913 4.59875 117.505 4.59875Z" fill="black"/>
<path d="M114.546 2.96882C114.25 2.96882 114.014 2.85239 113.836 2.67776C113.599 2.50312 113.481 2.21206 113.422 1.921C113.422 1.62994 113.481 1.33888 113.659 1.10603C113.895 0.873183 114.191 0.698547 114.546 0.698547C114.842 0.698547 115.079 0.814971 115.256 0.989608C115.493 1.16424 115.611 1.4553 115.67 1.74636C115.67 2.03742 115.611 2.32848 115.434 2.56133C115.197 2.79418 114.842 2.96882 114.546 2.96882Z" fill="black"/>
<path d="M114.547 2.91064C115.138 2.91064 115.612 2.44494 115.612 1.86282C115.612 1.2807 115.138 0.815002 114.547 0.815002C113.955 0.815002 113.481 1.2807 113.481 1.86282C113.481 2.44494 113.955 2.91064 114.547 2.91064Z" fill="black"/>
<path d="M111.173 2.3285C111.055 2.3285 110.937 2.3285 110.759 2.27029C110.168 2.03744 109.872 1.3971 110.049 0.814984C110.227 0.349288 110.641 0.0582275 111.114 0.0582275C111.233 0.0582275 111.351 0.0582275 111.529 0.11644C111.824 0.232864 112.061 0.4075 112.179 0.69856C112.298 0.989621 112.298 1.28068 112.239 1.57174C112.061 2.03744 111.647 2.3285 111.173 2.3285Z" fill="black"/>
<path d="M111.174 2.27026C111.765 2.27026 112.239 1.80456 112.239 1.22244C112.239 0.640318 111.765 0.174622 111.174 0.174622C110.582 0.174622 110.109 0.640318 110.109 1.22244C110.049 1.80456 110.582 2.27026 111.174 2.27026Z" fill="black"/>
<path d="M104.073 14.262C103.422 14.262 102.949 13.7381 102.949 13.156C102.949 12.5156 103.481 12.0499 104.073 12.0499C104.724 12.0499 105.197 12.5738 105.197 13.156C105.256 13.7963 104.724 14.262 104.073 14.262Z" fill="black"/>
<path d="M104.073 14.2038C104.665 14.2038 105.138 13.7381 105.138 13.156C105.138 12.5739 104.665 12.1082 104.073 12.1082C103.481 12.1082 103.008 12.5739 103.008 13.156C103.008 13.7381 103.481 14.2038 104.073 14.2038Z" fill="black"/>
<path d="M107.446 15.9501C106.795 15.9501 106.321 15.4262 106.321 14.8441C106.321 14.2037 106.854 13.738 107.446 13.738C108.096 13.738 108.57 14.2619 108.57 14.8441C108.57 15.4262 108.096 15.9501 107.446 15.9501Z" fill="black"/>
<path d="M107.446 15.8337C108.038 15.8337 108.511 15.368 108.511 14.7859C108.511 14.2037 108.038 13.738 107.446 13.738C106.854 13.738 106.381 14.2037 106.381 14.7859C106.381 15.368 106.854 15.8337 107.446 15.8337Z" fill="black"/>
<path d="M117.505 14.1456C117.327 14.1456 117.091 14.0873 116.913 13.9709C116.676 13.7963 116.44 13.5634 116.381 13.2724C116.321 12.9813 116.321 12.6903 116.499 12.3992C116.676 12.0499 117.091 11.8171 117.505 11.8171C117.682 11.8171 117.919 11.8753 118.097 11.9917C118.333 12.1664 118.57 12.3992 118.629 12.6903C118.688 12.9813 118.688 13.2724 118.511 13.5634C118.274 13.9127 117.919 14.1456 117.505 14.1456Z" fill="black"/>
<path d="M117.505 14.0873C118.097 14.0873 118.57 13.6216 118.57 13.0395C118.57 12.4574 118.097 11.9917 117.505 11.9917C116.913 11.9917 116.44 12.4574 116.44 13.0395C116.44 13.6216 116.913 14.0873 117.505 14.0873Z" fill="black"/>
<path d="M114.546 15.8337C114.191 15.8337 113.896 15.6591 113.659 15.4262C113.481 15.1934 113.363 14.9023 113.422 14.6112C113.422 14.3202 113.6 14.0291 113.836 13.8545C114.014 13.6798 114.31 13.5634 114.546 13.5634C114.901 13.5634 115.197 13.7381 115.434 13.9709C115.611 14.2037 115.73 14.4948 115.671 14.7859C115.671 15.0769 115.493 15.368 115.256 15.5426C115.079 15.7173 114.783 15.8337 114.546 15.8337Z" fill="black"/>
<path d="M114.547 15.7755C115.138 15.7755 115.612 15.3098 115.612 14.7277C115.612 14.1456 115.138 13.6799 114.547 13.6799C113.955 13.6799 113.481 14.1456 113.481 14.7277C113.481 15.3098 113.955 15.7755 114.547 15.7755Z" fill="black"/>
<path d="M111.173 16.4158C110.7 16.4158 110.286 16.1248 110.108 15.6591C109.872 15.077 110.227 14.4366 110.818 14.2038C110.937 14.1456 111.055 14.1456 111.233 14.1456C111.706 14.1456 112.12 14.4366 112.298 14.9023C112.416 15.1934 112.416 15.4844 112.238 15.7755C112.12 16.0666 111.883 16.2412 111.588 16.3576C111.41 16.3576 111.292 16.4158 111.173 16.4158Z" fill="black"/>
<path d="M111.174 16.3576C111.765 16.3576 112.239 15.8919 112.239 15.3098C112.239 14.7277 111.765 14.262 111.174 14.262C110.582 14.262 110.109 14.7277 110.109 15.3098C110.049 15.8919 110.582 16.3576 111.174 16.3576Z" fill="black"/>
<path d="M23.1264 2.61956C22.7122 2.61956 22.3572 2.38671 22.1205 2.03744C21.943 1.80459 21.943 1.45532 22.0022 1.16426C22.0614 0.873197 22.298 0.640349 22.5347 0.465713C22.7122 0.349289 22.8898 0.291077 23.1264 0.291077C23.5406 0.291077 23.8957 0.523925 24.1324 0.873197C24.4282 1.39711 24.2507 2.09565 23.7182 2.38671C23.5406 2.56135 23.3631 2.61956 23.1264 2.61956Z" fill="black"/>
<path d="M23.1261 2.56133C23.7178 2.56133 24.1912 2.09564 24.1912 1.51352C24.1912 0.931395 23.7178 0.465698 23.1261 0.465698C22.5344 0.465698 22.061 0.931395 22.061 1.51352C22.061 2.09564 22.5344 2.56133 23.1261 2.56133Z" fill="black"/>
<path d="M23.1264 5.93768C22.7122 5.93768 22.3572 5.70483 22.1205 5.35555C21.943 5.12271 21.943 4.77343 22.0022 4.48237C22.0614 4.19131 22.298 3.95846 22.5347 3.78383C22.7122 3.6674 22.8898 3.60919 23.1264 3.60919C23.5406 3.60919 23.8957 3.84204 24.1324 4.19131C24.4282 4.71522 24.2507 5.41377 23.7182 5.70483C23.5406 5.87946 23.3631 5.93768 23.1264 5.93768Z" fill="black"/>
<path d="M23.1261 5.87945C23.7178 5.87945 24.1912 5.41375 24.1912 4.83163C24.1912 4.24951 23.7178 3.78381 23.1261 3.78381C22.5344 3.78381 22.061 4.24951 22.061 4.83163C22.061 5.41375 22.5344 5.87945 23.1261 5.87945Z" fill="black"/>
<path d="M23.1264 9.25573C22.7122 9.25573 22.3572 9.02288 22.1205 8.67361C21.943 8.44076 21.943 8.09149 22.0022 7.80043C22.0614 7.50937 22.298 7.27652 22.5347 7.10188C22.7122 6.98546 22.8898 6.92725 23.1264 6.92725C23.5406 6.92725 23.8957 7.16009 24.1324 7.50937C24.4282 8.03328 24.2507 8.73182 23.7182 9.02288C23.5406 9.19752 23.3631 9.25573 23.1264 9.25573Z" fill="black"/>
<path d="M23.1261 9.1975C23.7178 9.1975 24.1912 8.73181 24.1912 8.14969C24.1912 7.56756 23.7178 7.10187 23.1261 7.10187C22.5344 7.10187 22.061 7.56756 22.061 8.14969C22.061 8.73181 22.5344 9.1975 23.1261 9.1975Z" fill="black"/>
<path d="M23.1264 12.5156C22.7122 12.5156 22.3572 12.2828 22.1205 11.9335C21.943 11.7006 21.943 11.3514 22.0022 11.0603C22.0614 10.7693 22.298 10.5364 22.5347 10.3618C22.7122 10.2453 22.8898 10.1871 23.1264 10.1871C23.5406 10.1871 23.8957 10.42 24.1324 10.7693C24.4282 11.2932 24.2507 11.9917 23.7182 12.2828C23.5406 12.4574 23.3631 12.5156 23.1264 12.5156Z" fill="black"/>
<path d="M23.1261 12.4574C23.7178 12.4574 24.1912 11.9917 24.1912 11.4096C24.1912 10.8275 23.7178 10.3618 23.1261 10.3618C22.5344 10.3618 22.061 10.8275 22.061 11.4096C22.061 11.9917 22.5344 12.4574 23.1261 12.4574Z" fill="black"/>
<path d="M36.6768 15.8919C36.2626 15.8919 35.9075 15.6591 35.6708 15.3098C35.375 14.7859 35.5525 14.0873 36.085 13.7963C36.2626 13.6799 36.4401 13.6216 36.6768 13.6216C37.091 13.6216 37.446 13.8545 37.6827 14.2038C37.9785 14.7277 37.801 15.4262 37.2685 15.7173C37.091 15.8337 36.9134 15.8919 36.6768 15.8919Z" fill="black"/>
<path d="M36.6764 15.8337C37.2681 15.8337 37.7415 15.368 37.7415 14.7859C37.7415 14.2037 37.2681 13.738 36.6764 13.738C36.0847 13.738 35.6113 14.2037 35.6113 14.7859C35.6113 15.368 36.0847 15.8337 36.6764 15.8337Z" fill="black"/>
<path d="M33.3628 15.8919C32.9486 15.8919 32.5936 15.6591 32.3569 15.3098C32.061 14.7859 32.2385 14.0873 32.7711 13.7963C32.9486 13.6799 33.1261 13.6216 33.3628 13.6216C33.777 13.6216 34.132 13.8545 34.3687 14.2038C34.6646 14.7277 34.4871 15.4262 33.9545 15.7173C33.777 15.8337 33.5403 15.8919 33.3628 15.8919Z" fill="black"/>
<path d="M33.3629 15.8337C33.9547 15.8337 34.428 15.368 34.428 14.7859C34.428 14.2037 33.9547 13.738 33.3629 13.738C32.7712 13.738 32.2979 14.2037 32.2979 14.7859C32.2979 15.368 32.7712 15.8337 33.3629 15.8337Z" fill="black"/>
<path d="M29.9902 15.8919C29.576 15.8919 29.221 15.6591 28.9843 15.3098C28.6885 14.7859 28.866 14.0873 29.3985 13.7963C29.576 13.6799 29.7536 13.6216 29.9902 13.6216C30.4044 13.6216 30.7595 13.8545 30.9962 14.2038C31.292 14.7277 31.1145 15.4262 30.582 15.7173C30.4044 15.8337 30.2269 15.8919 29.9902 15.8919Z" fill="black"/>
<path d="M29.9904 15.8337C30.5821 15.8337 31.0555 15.368 31.0555 14.7859C31.0555 14.2037 30.5821 13.738 29.9904 13.738C29.3987 13.738 28.9253 14.2037 28.9253 14.7859C28.9253 15.368 29.3987 15.8337 29.9904 15.8337Z" fill="black"/>
<path d="M26.6768 15.8919C26.2626 15.8919 25.9075 15.6591 25.6708 15.3098C25.375 14.7859 25.5525 14.0873 26.085 13.7963C26.2626 13.6799 26.4401 13.6216 26.6768 13.6216C27.091 13.6216 27.446 13.8545 27.6827 14.2038C27.9785 14.7277 27.801 15.4262 27.2685 15.7173C27.091 15.8337 26.8543 15.8919 26.6768 15.8919Z" fill="black"/>
<path d="M26.6764 15.8337C27.2681 15.8337 27.7415 15.368 27.7415 14.7859C27.7415 14.2037 27.2681 13.738 26.6764 13.738C26.0847 13.738 25.6113 14.2037 25.6113 14.7859C25.6113 15.368 26.0847 15.8337 26.6764 15.8337Z" fill="black"/>
<path d="M23.1265 15.8337C22.7123 15.8337 22.3572 15.6008 22.1206 15.2516C21.8247 14.7277 22.0022 14.0291 22.5348 13.7381C22.7123 13.6216 22.8898 13.5634 23.1265 13.5634C23.5407 13.5634 23.8957 13.7963 24.1324 14.1455C24.4282 14.6694 24.2507 15.368 23.7182 15.659C23.5407 15.7755 23.3632 15.8337 23.1265 15.8337Z" fill="black"/>
<path d="M23.1261 15.7755C23.7178 15.7755 24.1912 15.3098 24.1912 14.7277C24.1912 14.1456 23.7178 13.6799 23.1261 13.6799C22.5344 13.6799 22.061 14.1456 22.061 14.7277C22.061 15.3098 22.5344 15.7755 23.1261 15.7755Z" fill="black"/>
<path d="M66.9133 4.7734C66.2624 4.7734 65.7891 4.24949 65.7891 3.66737C65.7891 3.02704 66.3216 2.56134 66.9133 2.56134C67.5642 2.56134 68.0376 3.08525 68.0376 3.66737C68.0376 4.24949 67.5642 4.7734 66.9133 4.7734Z" fill="black"/>
<path d="M66.9132 4.7152C67.505 4.7152 67.9783 4.24951 67.9783 3.66739C67.9783 3.08526 67.505 2.61957 66.9132 2.61957C66.3215 2.61957 65.8481 3.08526 65.8481 3.66739C65.8481 4.24951 66.3215 4.7152 66.9132 4.7152Z" fill="black"/>
<path d="M68.5701 2.27029C67.9192 2.27029 67.4458 1.74638 67.4458 1.16426C67.4458 0.523924 67.9783 0.0582275 68.5701 0.0582275C69.2209 0.0582275 69.6943 0.582136 69.6943 1.16426C69.7535 1.74638 69.2209 2.27029 68.5701 2.27029Z" fill="black"/>
<path d="M68.57 2.21209C69.1617 2.21209 69.6351 1.74639 69.6351 1.16427C69.6351 0.582151 69.1617 0.116455 68.57 0.116455C67.9783 0.116455 67.5049 0.582151 67.5049 1.16427C67.5049 1.68818 67.9783 2.21209 68.57 2.21209Z" fill="black"/>
<path d="M65.2566 7.50936C64.6057 7.50936 64.1323 6.98545 64.1323 6.40333C64.1323 5.763 64.6649 5.2973 65.2566 5.2973C65.9075 5.2973 66.3808 5.82121 66.3808 6.40333C66.3808 6.98545 65.8483 7.50936 65.2566 7.50936Z" fill="black"/>
<path d="M65.2565 7.45116C65.8482 7.45116 66.3216 6.98547 66.3216 6.40335C66.3216 5.82123 65.8482 5.35553 65.2565 5.35553C64.6648 5.35553 64.1914 5.82123 64.1914 6.40335C64.1914 6.98547 64.6648 7.45116 65.2565 7.45116Z" fill="black"/>
<path d="M63.5999 10.3618C62.949 10.3618 62.4756 9.83787 62.4756 9.25575C62.4756 8.61542 63.0081 8.14972 63.5999 8.14972C64.2507 8.14972 64.7241 8.67363 64.7241 9.25575C64.7241 9.83787 64.1916 10.3618 63.5999 10.3618Z" fill="black"/>
<path d="M63.5998 10.3035C64.1915 10.3035 64.6649 9.83782 64.6649 9.2557C64.6649 8.67358 64.1915 8.20789 63.5998 8.20789C63.008 8.20789 62.5347 8.67358 62.5347 9.2557C62.5347 9.83782 63.008 10.3035 63.5998 10.3035Z" fill="black"/>
<path d="M61.8835 13.2141C61.2327 13.2141 60.7593 12.6902 60.7593 12.1081C60.7593 11.4678 61.2918 11.0021 61.8835 11.0021C62.5344 11.0021 63.0078 11.526 63.0078 12.1081C63.067 12.6902 62.5344 13.2141 61.8835 13.2141Z" fill="black"/>
<path d="M61.8834 13.1559C62.4752 13.1559 62.9485 12.6902 62.9485 12.1081C62.9485 11.526 62.4752 11.0603 61.8834 11.0603C61.2917 11.0603 60.8184 11.526 60.8184 12.1081C60.8184 12.6902 61.2917 13.1559 61.8834 13.1559Z" fill="black"/>
<path d="M60.2268 15.9501C59.5759 15.9501 59.1025 15.4262 59.1025 14.8441C59.1025 14.2037 59.6351 13.738 60.2268 13.738C60.8777 13.738 61.3511 14.2619 61.3511 14.8441C61.3511 15.4262 60.8777 15.9501 60.2268 15.9501Z" fill="black"/>
<path d="M60.2267 15.8919C60.8184 15.8919 61.2918 15.4262 61.2918 14.8441C61.2918 14.262 60.8184 13.7963 60.2267 13.7963C59.635 13.7963 59.1616 14.262 59.1616 14.8441C59.1616 15.4262 59.635 15.8919 60.2267 15.8919Z" fill="black"/>
<path d="M70.1086 4.7734C69.4578 4.7734 68.9844 4.24949 68.9844 3.66737C68.9844 3.02704 69.5169 2.56134 70.1086 2.56134C70.7595 2.56134 71.2329 3.08525 71.2329 3.66737C71.2329 4.24949 70.7595 4.7734 70.1086 4.7734Z" fill="black"/>
<path d="M70.1085 4.7152C70.7003 4.7152 71.1736 4.24951 71.1736 3.66739C71.1736 3.08526 70.7003 2.61957 70.1085 2.61957C69.5168 2.61957 69.0435 3.08526 69.0435 3.66739C69.0435 4.24951 69.5168 4.7152 70.1085 4.7152Z" fill="black"/>
<path d="M71.7654 7.50936C71.1145 7.50936 70.6411 6.98545 70.6411 6.40333C70.6411 5.763 71.1737 5.2973 71.7654 5.2973C72.4163 5.2973 72.8896 5.82121 72.8896 6.40333C72.8896 6.98545 72.4163 7.50936 71.7654 7.50936Z" fill="black"/>
<path d="M71.7653 7.45116C72.357 7.45116 72.8304 6.98547 72.8304 6.40335C72.8304 5.82123 72.357 5.35553 71.7653 5.35553C71.1736 5.35553 70.7002 5.82123 70.7002 6.40335C70.7002 6.98547 71.1736 7.45116 71.7653 7.45116Z" fill="black"/>
<path d="M73.4221 10.3618C72.7712 10.3618 72.2979 9.83787 72.2979 9.25575C72.2979 8.61542 72.8304 8.14972 73.4221 8.14972C74.073 8.14972 74.5464 8.67363 74.5464 9.25575C74.6056 9.83787 74.073 10.3618 73.4221 10.3618Z" fill="black"/>
<path d="M73.422 10.3035C74.0137 10.3035 74.4871 9.83782 74.4871 9.2557C74.4871 8.67358 74.0137 8.20789 73.422 8.20789C72.8303 8.20789 72.3569 8.67358 72.3569 9.2557C72.3569 9.83782 72.8303 10.3035 73.422 10.3035Z" fill="black"/>
<path d="M75.1379 13.2141C74.487 13.2141 74.0137 12.6902 74.0137 12.1081C74.0137 11.4678 74.5462 11.0021 75.1379 11.0021C75.7888 11.0021 76.2622 11.526 76.2622 12.1081C76.2622 12.6902 75.7296 13.2141 75.1379 13.2141Z" fill="black"/>
<path d="M75.138 13.1559C75.7297 13.1559 76.203 12.6902 76.203 12.1081C76.203 11.526 75.7297 11.0603 75.138 11.0603C74.5462 11.0603 74.0729 11.526 74.0729 12.1081C74.0137 12.6902 74.5462 13.1559 75.138 13.1559Z" fill="black"/>
<path d="M76.7947 15.9501C76.1438 15.9501 75.6704 15.4262 75.6704 14.8441C75.6704 14.2037 76.203 13.738 76.7947 13.738C77.4456 13.738 77.9189 14.2619 77.9189 14.8441C77.9189 15.4262 77.3864 15.9501 76.7947 15.9501Z" fill="black"/>
<path d="M76.7951 15.8919C77.3868 15.8919 77.8602 15.4262 77.8602 14.8441C77.8602 14.262 77.3868 13.7963 76.7951 13.7963C76.2034 13.7963 75.73 14.262 75.73 14.8441C75.73 15.4262 76.2034 15.8919 76.7951 15.8919Z" fill="black"/>
<path d="M41.5879 2.67779C41.1737 2.67779 40.8186 2.44494 40.582 2.09567C40.4044 1.86282 40.4044 1.51355 40.4636 1.22248C40.5228 0.931425 40.7595 0.698577 40.9962 0.52394C41.1737 0.407516 41.3512 0.349304 41.5879 0.349304C42.0021 0.349304 42.3571 0.582152 42.5938 0.931425C42.8897 1.45533 42.7121 2.15388 42.1796 2.44494C41.9429 2.67779 41.7654 2.67779 41.5879 2.67779Z" fill="black"/>
<path d="M41.588 2.61956C42.1798 2.61956 42.6531 2.15386 42.6531 1.57174C42.6531 0.989622 42.1798 0.523926 41.588 0.523926C40.9963 0.523926 40.5229 0.989622 40.5229 1.57174C40.5229 2.15386 40.9963 2.61956 41.588 2.61956Z" fill="black"/>
<path d="M41.5879 5.99584C41.1737 5.99584 40.8186 5.76299 40.582 5.41372C40.4044 5.18087 40.4044 4.8316 40.4636 4.54054C40.5228 4.24948 40.7595 4.01663 40.9962 3.84199C41.1737 3.72557 41.3512 3.66736 41.5879 3.66736C42.0021 3.66736 42.3571 3.90021 42.5938 4.24948C42.8897 4.77339 42.7121 5.47193 42.1796 5.76299C41.9429 5.93763 41.7654 5.99584 41.5879 5.99584Z" fill="black"/>
<path d="M41.588 5.93761C42.1798 5.93761 42.6531 5.47192 42.6531 4.8898C42.6531 4.30768 42.1798 3.84198 41.588 3.84198C40.9963 3.84198 40.5229 4.30768 40.5229 4.8898C40.5229 5.47192 40.9963 5.93761 41.588 5.93761Z" fill="black"/>
<path d="M41.5879 9.31396C41.1737 9.31396 40.8186 9.08111 40.582 8.73184C40.4044 8.49899 40.4044 8.14971 40.4636 7.85865C40.5228 7.56759 40.7595 7.33475 40.9962 7.16011C41.1737 7.04369 41.3512 6.98547 41.5879 6.98547C42.0021 6.98547 42.3571 7.21832 42.5938 7.56759C42.8897 8.0915 42.7121 8.79005 42.1796 9.08111C41.9429 9.25574 41.7654 9.31396 41.5879 9.31396Z" fill="black"/>
<path d="M41.588 9.25573C42.1798 9.25573 42.6531 8.79003 42.6531 8.20791C42.6531 7.62579 42.1798 7.1601 41.588 7.1601C40.9963 7.1601 40.5229 7.56758 40.5229 8.1497C40.5229 8.73182 40.9963 9.25573 41.588 9.25573Z" fill="black"/>
<path d="M41.5879 12.5738C41.1737 12.5738 40.8186 12.341 40.582 11.9917C40.4044 11.7589 40.4044 11.4096 40.4636 11.1185C40.5228 10.8275 40.7595 10.5946 40.9962 10.42C41.1737 10.3036 41.3512 10.2454 41.5879 10.2454C42.0021 10.2454 42.3571 10.4782 42.5938 10.8275C42.8897 11.3514 42.7121 12.0499 42.1796 12.341C41.9429 12.5738 41.7654 12.5738 41.5879 12.5738Z" fill="black"/>
<path d="M41.588 12.5156C42.1798 12.5156 42.6531 12.0499 42.6531 11.4678C42.6531 10.8857 42.1798 10.42 41.588 10.42C40.9963 10.42 40.5229 10.8857 40.5229 11.4678C40.5229 12.0499 40.9963 12.5156 41.588 12.5156Z" fill="black"/>
<path d="M55.1382 15.9501C54.724 15.9501 54.369 15.7173 54.1323 15.368C53.8364 14.8441 54.0139 14.1456 54.5465 13.8545C54.724 13.7381 54.9015 13.6799 55.1382 13.6799C55.5524 13.6799 55.9074 13.9127 56.1441 14.262C56.44 14.7859 56.2624 15.4844 55.7299 15.7755C55.4932 15.8919 55.3157 15.9501 55.1382 15.9501Z" fill="black"/>
<path d="M55.1378 15.8919C55.7296 15.8919 56.2029 15.4262 56.2029 14.8441C56.2029 14.262 55.7296 13.7963 55.1378 13.7963C54.5461 13.7963 54.0728 14.262 54.0728 14.8441C54.0728 15.4262 54.5461 15.8919 55.1378 15.8919Z" fill="black"/>
<path d="M51.7651 15.9501C51.3509 15.9501 50.9959 15.7173 50.7592 15.368C50.4634 14.8441 50.6409 14.1456 51.1734 13.8545C51.3509 13.7381 51.5285 13.6799 51.7651 13.6799C52.1793 13.6799 52.5344 13.9127 52.7711 14.262C53.0669 14.7859 52.8894 15.4844 52.3569 15.7755C52.1793 15.8919 52.0018 15.9501 51.7651 15.9501Z" fill="black"/>
<path d="M51.7653 15.8919C52.357 15.8919 52.8304 15.4262 52.8304 14.8441C52.8304 14.262 52.357 13.7963 51.7653 13.7963C51.1736 13.7963 50.7002 14.262 50.7002 14.8441C50.7002 15.4262 51.1736 15.8919 51.7653 15.8919Z" fill="black"/>
<path d="M48.4517 15.9501C48.0375 15.9501 47.6824 15.7173 47.4457 15.368C47.1499 14.8441 47.3274 14.1456 47.8599 13.8545C48.0375 13.7381 48.215 13.6799 48.4517 13.6799C48.8659 13.6799 49.2209 13.9127 49.4576 14.262C49.7534 14.7859 49.5759 15.4844 49.0434 15.7755C48.8067 15.8919 48.6292 15.9501 48.4517 15.9501Z" fill="black"/>
<path d="M48.4518 15.8919C49.0435 15.8919 49.5169 15.4262 49.5169 14.8441C49.5169 14.262 49.0435 13.7963 48.4518 13.7963C47.8601 13.7963 47.3867 14.262 47.3867 14.8441C47.3867 15.4262 47.8601 15.8919 48.4518 15.8919Z" fill="black"/>
<path d="M45.0791 15.9501C44.6649 15.9501 44.3099 15.7173 44.0732 15.368C43.7773 14.8441 43.9548 14.1456 44.4874 13.8545C44.6649 13.7381 44.8424 13.6799 45.0791 13.6799C45.4933 13.6799 45.8483 13.9127 46.085 14.262C46.3809 14.7859 46.2034 15.4844 45.6708 15.7755C45.4933 15.8919 45.3158 15.9501 45.0791 15.9501Z" fill="black"/>
<path d="M45.0788 15.8919C45.6705 15.8919 46.1439 15.4262 46.1439 14.8441C46.1439 14.262 45.6705 13.7963 45.0788 13.7963C44.487 13.7963 44.0137 14.262 44.0137 14.8441C44.0137 15.4262 44.487 15.8919 45.0788 15.8919Z" fill="black"/>
<path d="M55.1382 2.67774C54.724 2.67774 54.369 2.44489 54.1323 2.09562C53.8364 1.57171 54.0139 0.873167 54.5465 0.582107C54.724 0.465683 54.9015 0.407471 55.1382 0.407471C55.5524 0.407471 55.9074 0.640319 56.1441 0.989591C56.3216 1.22244 56.3216 1.57171 56.2624 1.86277C56.2033 2.15383 55.9666 2.38668 55.7299 2.56132C55.4932 2.67774 55.3157 2.67774 55.1382 2.67774Z" fill="black"/>
<path d="M55.1378 2.61956C55.7296 2.61956 56.2029 2.15386 56.2029 1.57174C56.2029 0.989622 55.7296 0.523926 55.1378 0.523926C54.5461 0.523926 54.0728 0.989622 54.0728 1.57174C54.0728 2.15386 54.5461 2.61956 55.1378 2.61956Z" fill="black"/>
<path d="M51.7651 2.67779C51.3509 2.67779 50.9959 2.44494 50.7592 2.09567C50.5817 1.86282 50.5817 1.51355 50.6409 1.22248C50.7 0.931425 50.9367 0.698577 51.1734 0.52394C51.3509 0.407516 51.5284 0.349304 51.7651 0.349304C52.1793 0.349304 52.5343 0.582152 52.771 0.931425C53.0669 1.45533 52.8894 2.15388 52.3568 2.44494C52.1793 2.67779 52.0018 2.67779 51.7651 2.67779Z" fill="black"/>
<path d="M51.7653 2.61956C52.357 2.61956 52.8304 2.15386 52.8304 1.57174C52.8304 0.989622 52.357 0.523926 51.7653 0.523926C51.1736 0.523926 50.7002 0.989622 50.7002 1.57174C50.7002 2.15386 51.1736 2.61956 51.7653 2.61956Z" fill="black"/>
<path d="M48.4517 2.67774C48.0375 2.67774 47.6824 2.44489 47.4457 2.09562C47.1499 1.62992 47.3274 0.931379 47.8599 0.582107C48.0375 0.465683 48.215 0.407471 48.4517 0.407471C48.8659 0.407471 49.2209 0.640319 49.4576 0.989591C49.6351 1.22244 49.6351 1.57171 49.5759 1.86277C49.5168 2.15383 49.2801 2.38668 49.0434 2.56132C48.8067 2.67774 48.6292 2.67774 48.4517 2.67774Z" fill="black"/>
<path d="M48.4518 2.61956C49.0435 2.61956 49.5169 2.15386 49.5169 1.57174C49.5169 0.989622 49.0435 0.523926 48.4518 0.523926C47.8601 0.523926 47.3867 0.989622 47.3867 1.57174C47.3867 2.15386 47.8601 2.61956 48.4518 2.61956Z" fill="black"/>
<path d="M45.0791 2.67779C44.6649 2.67779 44.3099 2.44494 44.0732 2.09567C43.8957 1.86282 43.8957 1.51355 43.9548 1.22248C44.014 0.931425 44.2507 0.698577 44.4874 0.52394C44.6649 0.407516 44.8424 0.349304 45.0791 0.349304C45.4933 0.349304 45.8483 0.582152 46.085 0.931425C46.3809 1.45533 46.2033 2.15388 45.6708 2.44494C45.4933 2.67779 45.3158 2.67779 45.0791 2.67779Z" fill="black"/>
<path d="M45.0788 2.61956C45.6705 2.61956 46.1439 2.15386 46.1439 1.57174C46.1439 0.989622 45.6705 0.523926 45.0788 0.523926C44.487 0.523926 44.0137 0.989622 44.0137 1.57174C44.0137 2.15386 44.487 2.61956 45.0788 2.61956Z" fill="black"/>
<path d="M51.7651 9.31396C51.3509 9.31396 50.9959 9.08111 50.7592 8.73184C50.5817 8.49899 50.5817 8.14971 50.6409 7.85865C50.7 7.56759 50.9367 7.33475 51.1734 7.16011C51.3509 7.04369 51.5284 6.98547 51.7651 6.98547C52.1793 6.98547 52.5343 7.21832 52.771 7.56759C53.0669 8.0915 52.8894 8.79005 52.3568 9.08111C52.1793 9.25574 52.0018 9.31396 51.7651 9.31396Z" fill="black"/>
<path d="M51.7653 9.1975C52.357 9.1975 52.8304 8.73181 52.8304 8.14969C52.8304 7.56756 52.357 7.10187 51.7653 7.10187C51.1736 7.10187 50.7002 7.56756 50.7002 8.14969C50.7002 8.73181 51.1736 9.1975 51.7653 9.1975Z" fill="black"/>
<path d="M48.4517 9.31397C48.0375 9.31397 47.6824 9.08112 47.4457 8.73185C47.1499 8.20794 47.3274 7.5094 47.8599 7.21834C48.0375 7.10191 48.215 7.0437 48.4517 7.0437C48.8659 7.0437 49.2209 7.27655 49.4576 7.62582C49.6351 7.85867 49.6351 8.20794 49.5759 8.499C49.5168 8.79006 49.2801 9.02291 49.0434 9.19755C48.8067 9.25576 48.6292 9.31397 48.4517 9.31397Z" fill="black"/>
<path d="M48.4518 9.1975C49.0435 9.1975 49.5169 8.73181 49.5169 8.14969C49.5169 7.56756 49.0435 7.10187 48.4518 7.10187C47.8601 7.10187 47.3867 7.56756 47.3867 8.14969C47.3867 8.73181 47.8601 9.1975 48.4518 9.1975Z" fill="black"/>
<path d="M45.0791 9.31396C44.6649 9.31396 44.3099 9.08111 44.0732 8.73184C43.8957 8.49899 43.8957 8.14971 43.9548 7.85865C44.014 7.56759 44.2507 7.33475 44.4874 7.16011C44.6649 7.04369 44.8424 6.98547 45.0791 6.98547C45.4933 6.98547 45.8483 7.21832 46.085 7.56759C46.3809 8.0915 46.2033 8.79005 45.6708 9.08111C45.4933 9.25574 45.3158 9.31396 45.0791 9.31396Z" fill="black"/>
<path d="M45.0788 9.1975C45.6705 9.1975 46.1439 8.73181 46.1439 8.14969C46.1439 7.56756 45.6705 7.10187 45.0788 7.10187C44.487 7.10187 44.0137 7.56756 44.0137 8.14969C44.0137 8.73181 44.487 9.1975 45.0788 9.1975Z" fill="black"/>
<path d="M92.1797 9.1975C91.7655 9.1975 91.4104 8.96465 91.1738 8.61538C90.9962 8.38253 90.9962 8.03326 91.0554 7.7422C91.1146 7.45114 91.3513 7.21829 91.588 7.04365C91.7655 6.92723 91.943 6.86902 92.1797 6.86902C92.5939 6.86902 92.9489 7.10187 93.1856 7.45114C93.3631 7.68399 93.3631 8.03326 93.3039 8.32432C93.2448 8.61538 93.0081 8.84823 92.7714 9.02287C92.5939 9.1975 92.4164 9.1975 92.1797 9.1975Z" fill="black"/>
<path d="M92.1793 9.13934C92.7711 9.13934 93.2444 8.67364 93.2444 8.09152C93.2444 7.5094 92.7711 7.0437 92.1793 7.0437C91.5876 7.0437 91.1143 7.5094 91.1143 8.09152C91.1143 8.67364 91.5876 9.13934 92.1793 9.13934Z" fill="black"/>
<path d="M88.8657 9.1975C88.4515 9.1975 88.0965 8.96465 87.8598 8.61538C87.6823 8.38253 87.6823 8.03326 87.7414 7.7422C87.8006 7.45114 88.0373 7.21829 88.274 7.04365C88.4515 6.92723 88.629 6.86902 88.8657 6.86902C89.2799 6.86902 89.6349 7.10187 89.8716 7.45114C90.0491 7.68399 90.0491 8.03326 89.99 8.32432C89.9308 8.61538 89.6941 8.84823 89.4574 9.02287C89.2799 9.1975 89.0432 9.1975 88.8657 9.1975Z" fill="black"/>
<path d="M88.8659 9.13934C89.4576 9.13934 89.931 8.67364 89.931 8.09152C89.931 7.5094 89.4576 7.0437 88.8659 7.0437C88.2742 7.0437 87.8008 7.5094 87.8008 8.09152C87.8008 8.67364 88.2742 9.13934 88.8659 9.13934Z" fill="black"/>
<path d="M85.4932 9.1975C85.079 9.1975 84.7239 8.96465 84.4872 8.61538C84.3097 8.38253 84.3097 8.03326 84.3689 7.7422C84.4281 7.45114 84.6647 7.21829 84.9014 7.04365C85.079 6.92723 85.2565 6.86902 85.4932 6.86902C85.9074 6.86902 86.2624 7.10187 86.4991 7.45114C86.6766 7.68399 86.6766 8.03326 86.6174 8.32432C86.5582 8.61538 86.3216 8.84823 86.0849 9.02287C85.9074 9.1975 85.7298 9.1975 85.4932 9.1975Z" fill="black"/>
<path d="M85.4933 9.13934C86.085 9.13934 86.5584 8.67364 86.5584 8.09152C86.5584 7.5094 86.085 7.0437 85.4933 7.0437C84.9016 7.0437 84.4282 7.5094 84.4282 8.09152C84.4282 8.67364 84.9016 9.13934 85.4933 9.13934Z" fill="black"/>
<path d="M72.0019 13.2142C71.5877 13.2142 71.2327 12.9813 70.996 12.632C70.8185 12.3992 70.8185 12.0499 70.8777 11.7589C70.9368 11.4678 71.1735 11.235 71.4102 11.0603C71.5877 10.9439 71.7652 10.8857 72.0019 10.8857C72.4161 10.8857 72.7712 11.1185 73.0078 11.4678C73.1854 11.7007 73.1854 12.0499 73.1262 12.341C73.067 12.632 72.8303 12.8649 72.5936 13.0395C72.357 13.156 72.1794 13.2142 72.0019 13.2142Z" fill="black"/>
<path d="M72.0022 13.1559C72.5939 13.1559 73.0673 12.6902 73.0673 12.1081C73.0673 11.526 72.5939 11.0603 72.0022 11.0603C71.4105 11.0603 70.9371 11.526 70.9371 12.1081C70.878 12.6902 71.3513 13.1559 72.0022 13.1559Z" fill="black"/>
<path d="M68.6294 13.2142C68.2152 13.2142 67.8602 12.9813 67.6235 12.6321C67.3276 12.1082 67.5051 11.4096 68.0377 11.1185C68.2152 11.0021 68.3927 10.9439 68.6294 10.9439C69.0436 10.9439 69.3986 11.1768 69.6353 11.526C69.8128 11.7589 69.8128 12.1081 69.7537 12.3992C69.6945 12.6903 69.4578 12.9231 69.2211 13.0978C69.0436 13.156 68.8069 13.2142 68.6294 13.2142Z" fill="black"/>
<path d="M68.6291 13.1559C69.2208 13.1559 69.6941 12.6902 69.6941 12.1081C69.6941 11.526 69.2208 11.0603 68.6291 11.0603C68.0373 11.0603 67.564 11.526 67.564 12.1081C67.564 12.6902 68.0373 13.1559 68.6291 13.1559Z" fill="black"/>
<path d="M65.3154 13.2142C64.9012 13.2142 64.5462 12.9813 64.3095 12.632C64.132 12.3992 64.132 12.0499 64.1912 11.7589C64.2503 11.4678 64.487 11.235 64.7237 11.0603C64.9012 10.9439 65.0787 10.8857 65.3154 10.8857C65.7296 10.8857 66.0846 11.1185 66.3213 11.4678C66.4988 11.7007 66.4988 12.0499 66.4397 12.341C66.3805 12.632 66.1438 12.8649 65.9071 13.0395C65.6704 13.156 65.4929 13.2142 65.3154 13.2142Z" fill="black"/>
<path d="M65.3157 13.1559C65.9074 13.1559 66.3808 12.6902 66.3808 12.1081C66.3808 11.526 65.9074 11.0603 65.3157 11.0603C64.724 11.0603 64.2506 11.526 64.2506 12.1081C64.1914 12.6902 64.724 13.1559 65.3157 13.1559Z" fill="black"/>
<path d="M41.5879 15.8919C41.1737 15.8919 40.8187 15.6591 40.582 15.3098C40.2861 14.7859 40.4636 14.0873 40.9962 13.7963C41.1737 13.6799 41.3512 13.6216 41.5879 13.6216C42.0021 13.6216 42.3571 13.8545 42.5938 14.2038C42.8897 14.7277 42.7122 15.4262 42.1796 15.7173C41.9429 15.8337 41.7654 15.8919 41.5879 15.8919Z" fill="black"/>
<path d="M41.588 15.8337C42.1798 15.8337 42.6531 15.368 42.6531 14.7859C42.6531 14.2037 42.1798 13.738 41.588 13.738C40.9963 13.738 40.5229 14.2037 40.5229 14.7859C40.5229 15.368 40.9963 15.8337 41.588 15.8337Z" fill="black"/>
<path d="M82.0019 2.79418C81.5877 2.79418 81.2327 2.56133 80.996 2.21206C80.8185 1.97921 80.8185 1.62994 80.8777 1.33888C80.9368 1.04782 81.1735 0.81497 81.4102 0.640334C81.5877 0.52391 81.7652 0.465698 82.0019 0.465698C82.4161 0.465698 82.7712 0.698546 83.0079 1.04782C83.1854 1.28067 83.1854 1.62994 83.1262 1.921C83.067 2.21206 82.8303 2.44491 82.5937 2.61954C82.4161 2.73597 82.1795 2.79418 82.0019 2.79418Z" fill="black"/>
<path d="M82.0021 2.67779C82.5938 2.67779 83.0672 2.21209 83.0672 1.62997C83.0672 1.04785 82.5938 0.582153 82.0021 0.582153C81.4104 0.582153 80.937 1.04785 80.937 1.62997C80.937 2.21209 81.4104 2.67779 82.0021 2.67779Z" fill="black"/>
<path d="M82.002 6.05408C81.5878 6.05408 81.2327 5.82123 80.996 5.47196C80.8777 5.23911 80.8185 4.94805 80.8777 4.65699C80.9369 4.36593 81.1736 4.13309 81.4102 3.95845C81.5878 3.84203 81.7653 3.78381 82.002 3.78381C82.4162 3.78381 82.7712 4.01666 83.0079 4.36593C83.1854 4.59878 83.1854 4.94805 83.1262 5.23911C83.0671 5.53017 82.8304 5.76302 82.5937 5.93766C82.4162 5.99587 82.1795 6.05408 82.002 6.05408Z" fill="black"/>
<path d="M82.0021 5.99584C82.5938 5.99584 83.0672 5.53015 83.0672 4.94802C83.0672 4.3659 82.5938 3.90021 82.0021 3.90021C81.4104 3.90021 80.937 4.3659 80.937 4.94802C80.937 5.53015 81.4104 5.99584 82.0021 5.99584Z" fill="black"/>
<path d="M82.0019 9.37218C81.5877 9.37218 81.2327 9.13934 80.996 8.79006C80.8185 8.55722 80.8185 8.20794 80.8777 7.91688C80.9368 7.62582 81.1735 7.39297 81.4102 7.21834C81.5877 7.10191 81.7652 7.0437 82.0019 7.0437C82.4161 7.0437 82.7712 7.27655 83.0079 7.62582C83.1854 7.85867 83.1854 8.20794 83.1262 8.499C83.067 8.79006 82.8303 9.02291 82.5937 9.19755C82.4161 9.31397 82.1795 9.37218 82.0019 9.37218Z" fill="black"/>
<path d="M82.0021 9.31396C82.5938 9.31396 83.0672 8.84826 83.0672 8.26614C83.0672 7.68402 82.5938 7.21832 82.0021 7.21832C81.4104 7.21832 80.937 7.68402 80.937 8.26614C80.937 8.84826 81.4104 9.31396 82.0021 9.31396Z" fill="black"/>
<path d="M82.0019 12.6902C81.5877 12.6902 81.2327 12.4574 80.996 12.1081C80.8185 11.8753 80.8185 11.526 80.8777 11.2349C80.9368 10.9439 81.1735 10.711 81.4102 10.5364C81.5877 10.42 81.7652 10.3618 82.0019 10.3618C82.4161 10.3618 82.7712 10.5946 83.0079 10.9439C83.1854 11.1767 83.1854 11.526 83.1262 11.8171C83.067 12.1081 82.8303 12.341 82.5937 12.5156C82.4161 12.632 82.1795 12.6902 82.0019 12.6902Z" fill="black"/>
<path d="M82.0021 12.5738C82.5938 12.5738 83.0672 12.1081 83.0672 11.526C83.0672 10.9439 82.5938 10.4782 82.0021 10.4782C81.4104 10.4782 80.937 10.9439 80.937 11.526C80.937 12.1081 81.4104 12.5738 82.0021 12.5738Z" fill="black"/>
<path d="M95.4932 3.02705C95.079 3.02705 94.7239 2.7942 94.4873 2.44492C94.1914 1.92102 94.3689 1.22247 94.9015 0.931411C95.079 0.814987 95.2565 0.756775 95.4932 0.756775C95.9074 0.756775 96.2624 0.989623 96.4991 1.3389C96.795 1.8628 96.6174 2.56135 96.0849 2.85241C95.8482 2.96883 95.6707 3.02705 95.4932 3.02705Z" fill="black"/>
<path d="M95.4929 2.91064C96.0847 2.91064 96.558 2.44494 96.558 1.86282C96.558 1.2807 96.0847 0.815002 95.4929 0.815002C94.9012 0.815002 94.4278 1.2807 94.4278 1.86282C94.3687 2.44494 94.9012 2.91064 95.4929 2.91064Z" fill="black"/>
<path d="M95.6709 8.96465C95.2567 8.96465 94.9016 8.73181 94.665 8.38253C94.4874 8.14968 94.4874 7.80041 94.5466 7.50935C94.6058 7.21829 94.8425 6.98544 95.0792 6.81081C95.2567 6.69438 95.4342 6.63617 95.6709 6.63617C96.0851 6.63617 96.4401 6.86902 96.6768 7.21829C96.9726 7.7422 96.7951 8.44074 96.2626 8.73181C96.0851 8.90644 95.9076 8.96465 95.6709 8.96465Z" fill="black"/>
<path d="M95.6706 8.90649C96.2623 8.90649 96.7357 8.44079 96.7357 7.85867C96.7357 7.27655 96.2623 6.81085 95.6706 6.81085C95.0788 6.81085 94.6055 7.27655 94.6055 7.85867C94.6055 8.44079 95.0788 8.90649 95.6706 8.90649Z" fill="black"/>
<path d="M96.9131 6.05408C96.4989 6.05408 96.1439 5.82123 95.9072 5.47196C95.6113 4.94805 95.7888 4.24951 96.3214 3.95845C96.4989 3.84203 96.6764 3.78381 96.9131 3.78381C97.3273 3.78381 97.6823 4.01666 97.919 4.36593C98.2149 4.88984 98.0374 5.58839 97.5048 5.87945C97.3273 5.99587 97.1498 6.05408 96.9131 6.05408Z" fill="black"/>
<path d="M96.9132 5.99584C97.505 5.99584 97.9783 5.53015 97.9783 4.94802C97.9783 4.3659 97.505 3.90021 96.9132 3.90021C96.3215 3.90021 95.8481 4.3659 95.8481 4.94802C95.8481 5.47193 96.3215 5.99584 96.9132 5.99584Z" fill="black"/>
<path d="M92.1797 2.67779C91.7655 2.67779 91.4104 2.44494 91.1738 2.09567C90.9962 1.86282 90.9962 1.51355 91.0554 1.22248C91.1146 0.931425 91.3513 0.698577 91.588 0.52394C91.7655 0.407516 91.943 0.349304 92.1797 0.349304C92.5939 0.349304 92.9489 0.582152 93.1856 0.931425C93.3631 1.16427 93.3631 1.51355 93.3039 1.80461C93.2448 2.09567 93.0081 2.32851 92.7714 2.50315C92.5939 2.67779 92.4164 2.67779 92.1797 2.67779Z" fill="black"/>
<path d="M92.1793 2.61956C92.7711 2.61956 93.2444 2.15386 93.2444 1.57174C93.2444 0.989622 92.7711 0.523926 92.1793 0.523926C91.5876 0.523926 91.1143 0.989622 91.1143 1.57174C91.1143 2.15386 91.5876 2.61956 92.1793 2.61956Z" fill="black"/>
<path d="M88.8657 2.67779C88.4515 2.67779 88.0965 2.44494 87.8598 2.09567C87.6823 1.86282 87.6823 1.51355 87.7414 1.22248C87.8006 0.931425 88.0373 0.698577 88.274 0.52394C88.4515 0.407516 88.629 0.349304 88.8657 0.349304C89.2799 0.349304 89.6349 0.582152 89.8716 0.931425C90.0491 1.16427 90.0491 1.51355 89.99 1.80461C89.9308 2.09567 89.6941 2.32851 89.4574 2.50315C89.2799 2.67779 89.0432 2.67779 88.8657 2.67779Z" fill="black"/>
<path d="M88.8659 2.61956C89.4576 2.61956 89.931 2.15386 89.931 1.57174C89.931 0.989622 89.4576 0.523926 88.8659 0.523926C88.2742 0.523926 87.8008 0.989622 87.8008 1.57174C87.8008 2.15386 88.2742 2.61956 88.8659 2.61956Z" fill="black"/>
<path d="M85.4932 2.67779C85.079 2.67779 84.7239 2.44494 84.4872 2.09567C84.3097 1.86282 84.3097 1.51355 84.3689 1.22248C84.4281 0.931425 84.6647 0.698577 84.9014 0.52394C85.079 0.407516 85.2565 0.349304 85.4932 0.349304C85.9074 0.349304 86.2624 0.582152 86.4991 0.931425C86.6766 1.16427 86.6766 1.51355 86.6174 1.80461C86.5582 2.09567 86.3216 2.32851 86.0849 2.50315C85.9074 2.67779 85.7298 2.67779 85.4932 2.67779Z" fill="black"/>
<path d="M85.4933 2.61956C86.085 2.61956 86.5584 2.15386 86.5584 1.57174C86.5584 0.989622 86.085 0.523926 85.4933 0.523926C84.9016 0.523926 84.4282 0.989622 84.4282 1.57174C84.4282 2.15386 84.9016 2.61956 85.4933 2.61956Z" fill="black"/>
<path d="M82.0019 15.9501C81.5878 15.9501 81.2327 15.7173 80.996 15.368C80.7002 14.8441 80.8777 14.1456 81.4102 13.8545C81.5878 13.7381 81.7653 13.6799 82.0019 13.6799C82.4161 13.6799 82.7712 13.9127 83.0079 14.262C83.1854 14.4948 83.1854 14.8441 83.1262 15.1352C83.067 15.4262 82.8303 15.6591 82.5937 15.8337C82.4161 15.8919 82.1795 15.9501 82.0019 15.9501Z" fill="black"/>
<path d="M82.0021 15.8919C82.5938 15.8919 83.0672 15.4262 83.0672 14.8441C83.0672 14.262 82.5938 13.7963 82.0021 13.7963C81.4104 13.7963 80.937 14.262 80.937 14.8441C80.937 15.4262 81.4104 15.8919 82.0021 15.8919Z" fill="black"/>
<path d="M94.3686 12.6902C93.9544 12.6902 93.5994 12.4574 93.3627 12.1081C93.1852 11.8753 93.1852 11.526 93.2444 11.2349C93.3035 10.9439 93.5402 10.711 93.7769 10.5364C93.9544 10.42 94.132 10.3618 94.3686 10.3618C94.7828 10.3618 95.1379 10.5946 95.3746 10.9439C95.6704 11.4678 95.4929 12.1663 94.9604 12.4574C94.7828 12.632 94.6053 12.6902 94.3686 12.6902Z" fill="black"/>
<path d="M94.3688 12.5738C94.9605 12.5738 95.4339 12.1081 95.4339 11.526C95.4339 10.9439 94.9605 10.4782 94.3688 10.4782C93.7771 10.4782 93.3037 10.9439 93.3037 11.526C93.3037 12.1081 93.7771 12.5738 94.3688 12.5738Z" fill="black"/>
<path d="M96.9131 15.9501C96.4989 15.9501 96.1439 15.7173 95.9072 15.368C95.6113 14.8441 95.7888 14.1456 96.3214 13.8545C96.4989 13.7381 96.6764 13.6799 96.9131 13.6799C97.3273 13.6799 97.6823 13.9127 97.919 14.262C98.2149 14.7859 98.0374 15.4844 97.5048 15.7755C97.3273 15.8919 97.1498 15.9501 96.9131 15.9501Z" fill="black"/>
<path d="M96.9132 15.8919C97.505 15.8919 97.9783 15.4262 97.9783 14.8441C97.9783 14.262 97.505 13.7963 96.9132 13.7963C96.3215 13.7963 95.8481 14.262 95.8481 14.8441C95.8481 15.4262 96.3215 15.8919 96.9132 15.8919Z" fill="black"/>
<path d="M124.665 4.71517C124.014 4.71517 123.541 4.19126 123.541 3.60914C123.541 3.02702 124.073 2.50311 124.665 2.50311C125.316 2.50311 125.789 3.02702 125.789 3.60914C125.789 4.19126 125.316 4.71517 124.665 4.71517Z" fill="black"/>
<path d="M124.665 4.65698C125.256 4.65698 125.73 4.19128 125.73 3.60916C125.73 3.02704 125.256 2.56134 124.665 2.56134C124.073 2.56134 123.6 3.02704 123.6 3.60916C123.6 4.19128 124.073 4.65698 124.665 4.65698Z" fill="black"/>
<path d="M122.771 11.2349C122.12 11.2349 121.647 10.711 121.647 10.1289C121.647 9.48858 122.18 9.02289 122.771 9.02289C123.422 9.02289 123.896 9.5468 123.896 10.1289C123.896 10.711 123.422 11.2349 122.771 11.2349Z" fill="black"/>
<path d="M122.771 11.1185C123.363 11.1185 123.836 10.6528 123.836 10.0707C123.836 9.48858 123.363 9.02289 122.771 9.02289C122.179 9.02289 121.706 9.48858 121.706 10.0707C121.706 10.6528 122.179 11.1185 122.771 11.1185Z" fill="black"/>
<path d="M122.771 7.68398C122.12 7.68398 121.647 7.16007 121.647 6.57795C121.647 5.99583 122.18 5.47192 122.771 5.47192C123.422 5.47192 123.896 5.99583 123.896 6.57795C123.896 7.16007 123.422 7.68398 122.771 7.68398Z" fill="black"/>
<path d="M122.771 7.62579C123.363 7.62579 123.836 7.16009 123.836 6.57797C123.836 5.99585 123.363 5.53015 122.771 5.53015C122.179 5.53015 121.706 5.99585 121.706 6.57797C121.706 7.16009 122.179 7.62579 122.771 7.62579Z" fill="black"/>
<path d="M139.872 11.2349C139.221 11.2349 138.748 10.711 138.748 10.1289C138.748 9.48858 139.28 9.02289 139.872 9.02289C140.523 9.02289 140.996 9.5468 140.996 10.1289C140.996 10.711 140.523 11.2349 139.872 11.2349Z" fill="black"/>
<path d="M139.872 11.1185C140.463 11.1185 140.937 10.6528 140.937 10.0707C140.937 9.48858 140.463 9.02289 139.872 9.02289C139.28 9.02289 138.807 9.48858 138.807 10.0707C138.807 10.6528 139.28 11.1185 139.872 11.1185Z" fill="black"/>
<path d="M139.872 7.68398C139.221 7.68398 138.748 7.16007 138.748 6.57795C138.748 5.99583 139.28 5.47192 139.872 5.47192C140.523 5.47192 140.996 5.99583 140.996 6.57795C140.996 7.21829 140.523 7.68398 139.872 7.68398Z" fill="black"/>
<path d="M139.872 7.62579C140.463 7.62579 140.937 7.16009 140.937 6.57797C140.937 5.99585 140.463 5.53015 139.872 5.53015C139.28 5.53015 138.807 5.99585 138.807 6.57797C138.807 7.16009 139.28 7.62579 139.872 7.62579Z" fill="black"/>
<path d="M128.037 2.96883C127.386 2.96883 126.913 2.44492 126.913 1.8628C126.913 1.22247 127.446 0.756775 128.037 0.756775C128.688 0.756775 129.162 1.28068 129.162 1.8628C129.162 2.44492 128.629 2.96883 128.037 2.96883Z" fill="black"/>
<path d="M128.037 2.91064C128.629 2.91064 129.102 2.44494 129.102 1.86282C129.102 1.2807 128.629 0.815002 128.037 0.815002C127.446 0.815002 126.972 1.2807 126.972 1.86282C126.913 2.44494 127.446 2.91064 128.037 2.91064Z" fill="black"/>
<path d="M138.038 4.88984C137.623 4.88984 137.268 4.65699 137.032 4.30772C136.736 3.78381 136.913 3.08526 137.446 2.7942C137.623 2.67778 137.801 2.61957 138.038 2.61957C138.452 2.61957 138.807 2.85242 139.044 3.20169C139.221 3.43454 139.221 3.78381 139.162 4.07487C139.103 4.36593 138.866 4.59878 138.629 4.77341C138.452 4.83163 138.274 4.88984 138.038 4.88984Z" fill="black"/>
<path d="M138.038 4.8316C138.629 4.8316 139.103 4.3659 139.103 3.78378C139.103 3.20166 138.629 2.73596 138.038 2.73596C137.446 2.73596 136.973 3.20166 136.973 3.78378C136.973 4.3659 137.446 4.8316 138.038 4.8316Z" fill="black"/>
<path d="M135.079 3.20167C134.783 3.20167 134.546 3.08524 134.369 2.91061C133.896 2.50312 133.836 1.80458 134.251 1.33888C134.487 1.10603 134.783 0.931396 135.138 0.931396C135.434 0.931396 135.671 1.04782 135.848 1.22246C136.085 1.39709 136.203 1.68815 136.262 1.97921C136.262 2.27027 136.203 2.56133 136.026 2.79418C135.789 3.02703 135.434 3.20167 135.079 3.20167Z" fill="black"/>
<path d="M135.079 3.14349C135.67 3.14349 136.144 2.67779 136.144 2.09567C136.144 1.51355 135.67 1.04785 135.079 1.04785C134.487 1.04785 134.014 1.51355 134.014 2.09567C134.014 2.67779 134.487 3.14349 135.079 3.14349Z" fill="black"/>
<path d="M131.706 2.56135C131.588 2.56135 131.47 2.56135 131.292 2.50314C130.7 2.27029 130.404 1.62995 130.582 1.04783C130.759 0.582137 131.174 0.291077 131.647 0.291077C131.765 0.291077 131.884 0.291077 132.061 0.349289C132.357 0.465713 132.594 0.640349 132.712 0.931409C132.83 1.22247 132.83 1.51353 132.771 1.80459C132.653 2.27029 132.18 2.56135 131.706 2.56135Z" fill="black"/>
<path d="M131.706 2.5031C132.298 2.5031 132.771 2.03741 132.771 1.45529C132.771 0.873167 132.298 0.407471 131.706 0.407471C131.114 0.407471 130.641 0.873167 130.641 1.45529C130.641 2.03741 131.114 2.5031 131.706 2.5031Z" fill="black"/>
<path d="M124.665 14.2038C124.014 14.2038 123.541 13.6798 123.541 13.0977C123.541 12.4574 124.073 11.9917 124.665 11.9917C125.316 11.9917 125.789 12.5156 125.789 13.0977C125.789 13.6798 125.316 14.2038 124.665 14.2038Z" fill="black"/>
<path d="M124.665 14.1456C125.256 14.1456 125.73 13.6799 125.73 13.0977C125.73 12.5156 125.256 12.0499 124.665 12.0499C124.073 12.0499 123.6 12.5156 123.6 13.0977C123.6 13.6217 124.073 14.1456 124.665 14.1456Z" fill="black"/>
<path d="M128.037 15.8337C128.688 15.8337 129.162 15.3098 129.162 14.7277C129.162 14.1456 128.629 13.6216 128.037 13.6216C127.386 13.6216 126.913 14.1456 126.913 14.7277C126.913 15.3098 127.386 15.8337 128.037 15.8337Z" fill="black"/>
<path d="M128.037 15.7755C128.629 15.7755 129.102 15.3098 129.102 14.7277C129.102 14.1456 128.629 13.6799 128.037 13.6799C127.446 13.6799 126.972 14.1456 126.972 14.7277C126.913 15.3098 127.446 15.7755 128.037 15.7755Z" fill="black"/>
<path d="M138.038 14.0291C137.86 14.0291 137.623 13.9709 137.446 13.8545C136.913 13.5634 136.736 12.8649 137.032 12.341C137.209 11.9917 137.623 11.7589 138.038 11.7589C138.215 11.7589 138.452 11.8171 138.629 11.9335C138.866 12.1081 139.103 12.341 139.162 12.632C139.221 12.9231 139.221 13.2142 139.044 13.5052C138.866 13.7963 138.452 14.0291 138.038 14.0291Z" fill="black"/>
<path d="M138.038 13.9709C138.629 13.9709 139.103 13.5052 139.103 12.9231C139.103 12.341 138.629 11.8753 138.038 11.8753C137.446 11.8753 136.973 12.341 136.973 12.9231C136.973 13.5052 137.446 13.9709 138.038 13.9709Z" fill="black"/>
<path d="M135.079 15.7173C134.724 15.7173 134.428 15.5427 134.192 15.3098C133.777 14.8441 133.837 14.1456 134.31 13.7381C134.487 13.5634 134.783 13.447 135.02 13.447C135.375 13.447 135.671 13.6217 135.908 13.8545C136.085 14.0874 136.203 14.3784 136.144 14.6695C136.144 14.9605 135.967 15.2516 135.73 15.4262C135.612 15.6591 135.375 15.7173 135.079 15.7173Z" fill="black"/>
<path d="M135.079 15.659C135.67 15.659 136.144 15.1934 136.144 14.6112C136.144 14.0291 135.67 13.5634 135.079 13.5634C134.487 13.5634 134.014 14.0291 134.014 14.6112C134.014 15.1934 134.487 15.659 135.079 15.659Z" fill="black"/>
<path d="M131.706 16.2994C131.233 16.2994 130.819 16.0083 130.641 15.5426C130.404 14.9605 130.759 14.3202 131.351 14.0873C131.469 14.0291 131.588 14.0291 131.765 14.0291C132.239 14.0291 132.653 14.3202 132.83 14.7859C133.067 15.368 132.712 16.0083 132.12 16.2412C132.002 16.2994 131.884 16.2994 131.706 16.2994Z" fill="black"/>
<path d="M131.706 16.2412C132.298 16.2412 132.771 15.7755 132.771 15.1934C132.771 14.6113 132.298 14.1456 131.706 14.1456C131.114 14.1456 130.641 14.6113 130.641 15.1934C130.641 15.7755 131.114 16.2412 131.706 16.2412Z" fill="black"/>
</g>
<defs>
<clipPath id="clip0">
<rect width="140" height="28" fill="white" transform="translate(0.996094)"/>
</clipPath>
</defs>
</svg>
