<svg width="128" height="30" viewBox="0 0 128 30" fill="none" xmlns="http://www.w3.org/2000/svg">
<g clip-path="url(#clip0)">
<path d="M17.104 0.550584L26.7469 5.96179C28.0925 6.71688 28.9246 8.1331 28.9246 9.66822V20.3318C28.9246 21.8669 28.0925 23.2831 26.7469 24.0382L17.104 29.4494C15.7958 30.1835 14.1962 30.1835 12.8879 29.4494L3.24505 24.0382C1.89946 23.2831 1.06738 21.8669 1.06738 20.3318V9.66822C1.06738 8.1331 1.89946 6.71688 3.24505 5.96179L12.8879 0.550584C14.1962 -0.183528 15.7958 -0.183528 17.104 0.550584ZM2.67453 9.71139V20.3318C2.67453 21.2848 3.19202 22.1656 4.03155 22.6367L13.5375 27.971C13.6606 28.0187 13.7918 28.0434 13.9246 28.0434C14.5163 28.0434 14.996 27.5637 14.996 26.972V18.3878C14.996 16.9888 14.2173 15.7061 12.9761 15.0607L12.2685 14.6928C12.1016 14.6217 11.9368 14.5439 11.7746 14.4592L2.67453 9.71139ZM12.644 13.5093C14.352 14.4004 15.6446 14.4004 17.3526 13.5093L26.5844 8.32656C26.3571 7.80604 25.9628 7.3619 25.447 7.07243L16.3176 1.95213C15.4979 1.49215 14.4941 1.49215 13.6744 1.95213L4.56231 7.07243C4.04646 7.3619 3.65221 7.80604 3.42487 8.32656L12.644 13.5093ZM14.996 3.75C17.0049 3.75 18.6449 4.73732 18.7415 5.97794L18.746 8.10268C18.746 9.3971 17.0671 10.4464 14.996 10.4464C12.9249 10.4464 11.246 9.3971 11.246 8.10268V5.97794C11.3471 4.73732 12.9871 3.75 14.996 3.75ZM14.9964 7.5C16.7361 7.5 18.1464 6.79485 18.1464 5.925C18.1464 5.05515 16.7361 4.35 14.9964 4.35C13.2567 4.35 11.8464 5.05515 11.8464 5.925C11.8464 6.79485 13.2567 7.5 14.9964 7.5Z" fill="black"/>
<path fill-rule="evenodd" clip-rule="evenodd" d="M43.6973 15.8053C43.6973 17.0069 44.0063 17.9725 44.6243 18.702C45.2422 19.4316 46.0576 19.7963 47.0704 19.7963C48.0488 19.7963 48.847 19.4273 49.465 18.6892C50.083 17.951 50.392 16.9812 50.392 15.7796C50.392 14.5951 50.0915 13.651 49.4907 12.9472C48.8899 12.2434 48.0918 11.8915 47.0961 11.8915C46.1005 11.8915 45.2852 12.2477 44.65 12.9601C44.0149 13.6725 43.6973 14.6209 43.6973 15.8053ZM53.2757 3.47172V22.1137H51.5882C51.1413 22.1137 50.7323 21.863 50.5294 21.4649C50.4206 21.2514 50.3661 21.0438 50.3661 20.8421C50.0196 21.2383 49.744 21.571 49.0917 21.9315C48.4393 22.292 47.5767 22.4227 46.7356 22.4227C44.9503 22.4227 43.4999 21.7962 42.3841 20.5431C41.2684 19.2899 40.7104 17.7107 40.7104 15.8053C40.7104 13.9686 41.2726 12.4151 42.3969 11.1448C43.5213 9.87454 44.9504 9.23941 46.6842 9.23941C47.6798 9.23941 48.4823 9.41965 49.0917 9.78013C49.701 10.1406 50.1258 10.5612 50.3661 11.0418V3.47172H53.2757ZM63.9337 9.41965V12.458H63.5494C61.3008 12.458 60.1763 13.6853 60.1763 16.14V22.1137H57.1896V9.57414H59.1266C59.4702 9.57414 59.7747 9.79566 59.8804 10.1226L60.1763 11.0379C60.3189 10.7408 60.7152 10.0812 61.4084 9.75042C62.1016 9.41965 62.9058 9.41965 63.7297 9.41965H63.9337ZM65.6073 18.7149C65.6073 17.6506 65.955 16.7966 66.6502 16.1529C67.3454 15.5092 68.2595 15.1015 69.3925 14.9299L72.611 14.4406C73.229 14.3548 73.538 14.0544 73.538 13.5394C73.538 12.973 73.3405 12.5138 72.9458 12.1619C72.551 11.81 71.9586 11.634 71.169 11.634C70.4137 11.634 69.813 11.8443 69.3666 12.2649C68.9203 12.6854 68.6628 13.2304 68.5942 13.8999L65.9025 13.8742C66.0227 12.7412 66.5257 11.1834 67.487 10.3852C68.4482 9.58701 69.6671 9.18791 71.1434 9.18791C72.9629 9.18791 74.3061 9.62563 75.173 10.5011C76.0399 11.3765 76.4732 12.5009 76.4732 13.8742V20.1053C76.4732 20.9293 76.5247 21.5987 76.6278 22.1137H75.0216C74.8518 22.1137 74.6836 22.0825 74.5251 22.0218C73.9925 21.8175 73.726 21.485 73.726 21.0244C73.1319 22.0147 71.6068 22.4999 69.8559 22.4999C68.5857 22.4999 67.5599 22.1266 66.7789 21.3799C65.9979 20.6332 65.6073 19.7448 65.6073 18.7149ZM70.4224 20.1568C71.3494 20.1568 72.1003 19.9036 72.6754 19.3972C73.2505 18.8908 73.538 18.0626 73.538 16.9125V16.346L70.2678 16.8353C69.152 17.0241 68.5942 17.5905 68.5942 18.5347C68.5942 18.981 68.7573 19.3629 69.0835 19.6805C69.4096 19.998 69.8559 20.1568 70.4224 20.1568ZM85.6398 6.41697C85.142 6.41697 84.7085 6.55858 84.3395 6.84182C83.9705 7.12505 83.7859 7.61856 83.7859 8.32236V9.57414H86.6955V12.1748H83.7859V22.1137H80.7733V12.1748H78.5847V9.57414H79.4442C80.1782 9.57414 80.7733 8.97912 80.7733 8.24512C80.7733 6.85468 81.1766 5.75609 81.9834 4.94929C82.7902 4.1425 83.846 3.73911 85.1506 3.73911H86.6955V6.41697H85.6398ZM93.7229 5.7891V9.62564H96.3235V12.2777H93.7229V18.0969C93.7229 18.6462 93.8517 19.0453 94.1091 19.2942C94.3666 19.5431 94.7699 19.6676 95.3192 19.6676H95.7293V22.3197H94.5211C93.3538 22.3197 92.4354 21.9893 91.7659 21.3284C91.0965 20.6675 90.7618 19.7534 90.7618 18.5862V12.2777H88.4443V9.62564H89.0882C89.7233 9.62564 90.2038 9.4454 90.53 9.08492C90.8561 8.72444 91.0193 8.25238 91.0193 7.66874V5.7891H93.7229ZM98.7439 3.4123H101.653V11.0854C101.894 10.6047 102.393 10.2099 103.002 9.84945C103.612 9.48897 104.581 9.25525 105.577 9.25525C107.311 9.25525 108.696 9.81512 109.821 11.0854C110.945 12.3557 111.321 13.9547 111.321 15.7914C111.321 17.6969 110.949 19.2305 109.833 20.4836C108.718 21.7367 107.164 22.4267 105.379 22.4267C104.538 22.4267 103.778 22.2326 103.126 21.8721C102.474 21.5116 102 21.1788 101.653 20.7827C101.653 20.9844 101.599 21.192 101.49 21.4055C101.287 21.8036 100.878 22.0543 100.431 22.0543H98.7439V3.4123ZM107.389 18.7149C108.024 17.9939 108.342 17.0241 108.342 15.8053C108.342 14.5865 108.033 13.6296 107.415 12.9343C106.797 12.2391 105.982 11.8915 104.969 11.8915C103.99 11.8915 103.184 12.2391 102.549 12.9343C101.913 13.6296 101.596 14.5865 101.596 15.8053C101.596 17.0069 101.913 17.9682 102.549 18.6892C103.184 19.4101 103.99 19.7706 104.969 19.7706C105.965 19.7706 106.771 19.4187 107.389 18.7149ZM114.238 12.5233H113.004V9.55235H115.975V9.57414H117.2V22.1137H114.238V12.5233ZM114.341 6.5358C113.964 6.15816 113.775 5.70327 113.775 5.17113C113.775 4.63899 113.964 4.17981 114.341 3.79358C114.719 3.40735 115.174 3.21423 115.706 3.21423C116.255 3.21423 116.719 3.40305 117.097 3.7807C117.474 4.15835 117.663 4.62182 117.663 5.17113C117.663 5.70327 117.474 6.15816 117.097 6.5358C116.719 6.91345 116.255 7.10227 115.706 7.10227C115.174 7.10227 114.719 6.91345 114.341 6.5358ZM124.847 5.7376V9.57414H127.447V12.2262H124.847V18.0454C124.847 18.5947 124.976 18.9938 125.233 19.2427C125.491 19.4917 125.894 19.6161 126.443 19.6161H126.853V22.2682H125.645C124.478 22.2682 123.559 21.9378 122.89 21.2769C122.22 20.616 121.886 19.7019 121.886 18.5347V12.2262H119.568V9.57414H120.212C120.847 9.57414 121.328 9.3939 121.654 9.03342C121.98 8.67294 122.143 8.20088 122.143 7.61725V5.7376H124.847Z" fill="black"/>
</g>
<defs>
<clipPath id="clip0">
<rect width="127" height="30" fill="white" transform="translate(0.996094)"/>
</clipPath>
</defs>
</svg>
