<svg width="79" height="28" viewBox="0 0 79 28" fill="none" xmlns="http://www.w3.org/2000/svg">
<g clip-path="url(#clip0)">
<path fill-rule="evenodd" clip-rule="evenodd" d="M68.2399 2.60578L66.74 8.72379L64.8506 8.74355L66.292 2.62559L64.1299 2.66516L64.5779 0.982239L72.7784 1.002L73.2459 6.26866L76.0118 1.002H78.0376L73.577 8.72379L71.8629 8.74355L70.7916 1.21979L71.0086 2.58596L68.2399 2.60578Z" fill="black"/>
<path fill-rule="evenodd" clip-rule="evenodd" d="M1.47187 11.9322L2.40686 7.29921L5.01699 7.3586C5.80904 2.31634 9.09443 0.382554 14.6978 1.14144L13.8408 5.75476L11.7371 5.71506C10.696 5.75551 10.1392 6.33407 9.98403 7.35849L12.711 7.34025L11.8539 11.9139L9.06853 11.9536L6.24413 26.5656L1.35498 26.5837L4.14042 11.9123L1.47187 11.9322ZM14.3123 7.14028H19.4546L17.4873 17.4359C17.0977 19.6139 16.6887 22.0294 19.2404 22.4849C19.9485 22.5884 20.6765 22.4857 21.3654 22.1579C23.4424 21.1687 23.9481 19.0755 24.368 16.9747L26.3306 7.16019L31.2586 7.14195L27.4798 26.4465L22.9608 26.5059L23.1556 25.5555C20.15 27.5698 16.4951 27.3002 14.3143 25.8365C12.1963 24.3186 11.7135 21.6601 12.2445 18.2944L14.3123 7.14028ZM29.1514 26.5066L33.9821 26.4885L34.2743 24.9244C37.2415 28.1848 44.0266 27.109 46.39 24.9641C45.088 23.6078 44.536 21.9975 44.3253 20.2716C42.6436 22.5024 39.3452 22.773 37.6441 21.4398C36.0469 20.2856 35.6328 17.9855 36.0484 15.9922C36.4238 14.1918 37.5868 12.5977 39.2858 11.9047C41.2963 11.0848 43.7069 11.6092 44.8901 13.2032C46.8821 16.4968 45.2806 19.2372 46.6738 22.1873C47.5029 23.9432 49.139 25.4342 50.879 26.1961C52.9732 27.1132 55.5315 27.2895 57.8994 26.5897C60.6803 25.7679 62.9662 23.7338 64.2272 21.0953C65.7271 17.9574 65.8326 14.0837 64.2585 11.1716C61.6527 6.35122 54.5668 5.1738 50.1885 8.58986C51.2906 9.97747 51.7872 11.5648 52.1364 13.2428C53.9543 10.8009 57.467 11.0913 59.1097 12.5696C60.519 13.8314 60.9119 16.7809 59.8548 19.1024C59.035 20.9024 57.5398 21.8764 55.6499 22.1736C52.3223 22.6969 50.5446 19.9744 50.3833 17.1433C50.3456 14.3177 50.1218 12.2827 49.0954 10.6376C48.3897 9.506 47.2475 8.47471 46.0782 7.86396C43.5466 6.54148 39.9865 6.44529 37.5274 7.99597L38.8325 1.18493L33.9823 1.16669L29.1514 26.5066Z" fill="black"/>
</g>
<defs>
<clipPath id="clip0">
<rect width="78" height="27" fill="white" transform="translate(0.696289 0.5)"/>
</clipPath>
</defs>
</svg>
