<svg width="138" height="32" viewBox="0 0 138 32" fill="none" xmlns="http://www.w3.org/2000/svg">
<path d="M9.90857 10.8673C7.51825 13.6432 4.24119 12.8721 2.50628 11.1372C-1.0021 7.62883 2.50628 2 7.32548 2C11.9134 2 14.1109 5.97102 9.90857 10.8673Z" fill="black"/>
<path d="M24.4816 4.66021C20.2793 4.54455 12.9155 7.55173 12.9155 13.1034C12.9155 21.7395 32.1152 34.5778 31.9996 14.8384C31.961 7.39751 28.4912 4.77587 24.4816 4.66021Z" fill="black"/>
<path d="M0 19.7733C0 16.9203 1.42648 14.7227 3.93247 14.7227C9.17576 14.7227 17.9274 25.2093 14.0721 29.0647C10.3324 32.8044 0 28.7177 0 19.7733Z" fill="black"/>
<path d="M39.508 9.156H42.94V10.508C43.9627 9.364 45.3407 8.792 47.074 8.792C48.27 8.792 49.3447 9.08667 50.298 9.676C51.2687 10.248 52.0227 11.054 52.56 12.094C53.1147 13.1167 53.392 14.278 53.392 15.578C53.392 16.982 53.106 18.1953 52.534 19.218C51.9793 20.2407 51.2167 21.0207 50.246 21.558C49.2753 22.0953 48.2007 22.364 47.022 22.364C45.2367 22.364 43.876 21.8353 42.94 20.778V27.876H39.508V9.156ZM46.372 19.192C47.4293 19.192 48.2873 18.854 48.946 18.178C49.622 17.4847 49.96 16.618 49.96 15.578C49.96 14.538 49.622 13.68 48.946 13.004C48.2873 12.3107 47.4293 11.964 46.372 11.964C45.3147 11.964 44.448 12.3107 43.772 13.004C43.1133 13.68 42.784 14.538 42.784 15.578C42.784 16.618 43.1133 17.4847 43.772 18.178C44.448 18.854 45.3147 19.192 46.372 19.192ZM60.7766 22.364C59.7366 22.364 58.7313 22.0867 57.7606 21.532C56.8073 20.9773 56.0273 20.1887 55.4206 19.166C54.8313 18.126 54.5366 16.93 54.5366 15.578C54.5366 14.3473 54.8226 13.212 55.3946 12.172C55.9666 11.132 56.7466 10.3087 57.7346 9.702C58.7226 9.09533 59.8059 8.792 60.9846 8.792C61.8166 8.792 62.5706 8.93067 63.2466 9.208C63.9399 9.48533 64.4686 9.858 64.8326 10.326V9.156H68.2646V22H64.8326V20.83C64.2953 21.3327 63.7233 21.714 63.1166 21.974C62.5099 22.234 61.7299 22.364 60.7766 22.364ZM61.4786 19.192C62.5359 19.192 63.3853 18.8453 64.0266 18.152C64.6679 17.4587 64.9886 16.6007 64.9886 15.578C64.9886 14.5553 64.6679 13.6973 64.0266 13.004C63.3853 12.3107 62.5359 11.964 61.4786 11.964C60.4213 11.964 59.5719 12.3107 58.9306 13.004C58.2893 13.6973 57.9686 14.5553 57.9686 15.578C57.9686 16.6007 58.2893 17.4587 58.9306 18.152C59.5719 18.8453 60.4213 19.192 61.4786 19.192ZM70.7649 9.156H74.1969V10.742C74.6649 10.1527 75.2715 9.68467 76.0169 9.338C76.7795 8.974 77.5769 8.792 78.4089 8.792C79.8129 8.792 80.9222 9.17333 81.7369 9.936C82.5689 10.6813 82.9849 11.782 82.9849 13.238V22H79.5529V14.46C79.5529 13.628 79.3275 13.004 78.8769 12.588C78.4435 12.172 77.8542 11.964 77.1089 11.964C76.2595 11.964 75.5575 12.276 75.0029 12.9C74.4655 13.5067 74.1969 14.33 74.1969 15.37V22H70.7649V9.156ZM90.2669 22.364C89.1576 22.364 88.2129 22 87.4329 21.272C86.6529 20.544 86.2629 19.4693 86.2629 18.048V12.068H84.1309V9.156H86.2629V7.024L89.6949 5.464V9.156H93.1789V12.068H89.6949V17.892C89.6949 18.4293 89.8249 18.828 90.0849 19.088C90.3449 19.348 90.6829 19.478 91.0989 19.478C91.7402 19.478 92.3989 19.2267 93.0749 18.724H93.4649L93.2309 21.714C92.6589 21.974 92.1736 22.1473 91.7749 22.234C91.3936 22.3207 90.8909 22.364 90.2669 22.364ZM95.1917 3.28H98.6237V10.742C99.0743 10.1527 99.6897 9.68467 100.47 9.338C101.267 8.974 102.09 8.792 102.94 8.792C104.361 8.792 105.496 9.17333 106.346 9.936C107.195 10.6813 107.62 11.782 107.62 13.238V22H104.188V14.46C104.188 13.628 103.971 13.004 103.538 12.588C103.104 12.172 102.506 11.964 101.744 11.964C100.894 11.964 100.158 12.276 99.5337 12.9C98.927 13.524 98.6237 14.3473 98.6237 15.37V22H95.1917V3.28ZM116.379 22.364C115.027 22.364 113.813 22.0607 112.739 21.454C111.664 20.8473 110.815 20.024 110.191 18.984C109.584 17.9267 109.281 16.7567 109.281 15.474C109.281 14.226 109.567 13.0993 110.139 12.094C110.728 11.0713 111.534 10.2653 112.557 9.676C113.597 9.08667 114.767 8.792 116.067 8.792C117.384 8.792 118.519 9.104 119.473 9.728C120.443 10.3347 121.171 11.1493 121.657 12.172C122.159 13.1947 122.411 14.2953 122.411 15.474V16.488H112.557C112.765 17.4587 113.207 18.1953 113.883 18.698C114.576 19.2007 115.486 19.452 116.613 19.452C118.329 19.452 119.828 18.8887 121.111 17.762H121.475L121.345 21.012C120.565 21.4627 119.741 21.8007 118.875 22.026C118.008 22.2513 117.176 22.364 116.379 22.364ZM118.979 14.148C118.892 13.368 118.563 12.7613 117.991 12.328C117.436 11.8773 116.751 11.652 115.937 11.652C115.139 11.652 114.437 11.8687 113.831 12.302C113.241 12.718 112.843 13.3333 112.635 14.148H118.979ZM124.29 9.156H127.722V10.43C128.121 9.91 128.615 9.51133 129.204 9.234C129.794 8.93933 130.4 8.792 131.024 8.792C131.492 8.792 131.882 8.844 132.194 8.948C132.506 9.03467 132.81 9.182 133.104 9.39L133.338 13.004H132.844C132.584 12.692 132.246 12.4407 131.83 12.25C131.432 12.0593 131.016 11.964 130.582 11.964C129.768 11.964 129.083 12.224 128.528 12.744C127.991 13.2467 127.722 14.0007 127.722 15.006V22H124.29V9.156Z" fill="black"/>
</svg>
